<?xml version="1.0" encoding="utf-8"?>
<!-- Generator: Adobe Illustrator 26.2.1, SVG Export Plug-In . SVG Version: 6.00 Build 0)  -->
<svg version="1.1" id="Capa_1" xmlns="http://www.w3.org/2000/svg" xmlns:xlink="http://www.w3.org/1999/xlink" x="0px" y="0px"
	 viewBox="0 0 500 500" style="enable-background:new 0 0 500 500;" xml:space="preserve">
<style type="text/css">
	.st0{fill:#C02021;}
	.st1{fill:#1C1C1B;}
</style>
<g>
	<g>
		<path class="st0" d="M309.3,263.5c2.6,0.6,4.5,1.4,5.6,2.3c1.5,1.3,2.3,2.9,2.3,4.9c0,2.1-0.8,3.9-2.5,5.3c-2.1,1.7-5.1,2.5-9,2.5
			h-14.2v-0.8c1.3,0,2.2-0.1,2.6-0.4c0.5-0.2,0.8-0.6,1-1c0.2-0.4,0.3-1.4,0.3-2.9v-18.4c0-1.5-0.1-2.5-0.3-2.9
			c-0.2-0.4-0.5-0.7-1-1c-0.5-0.2-1.3-0.4-2.6-0.4v-0.8h13.4c3.2,0,5.5,0.3,6.8,0.9c1.3,0.6,2.4,1.4,3.2,2.6
			c0.8,1.1,1.2,2.4,1.2,3.7c0,1.4-0.5,2.6-1.5,3.6C313.4,262.1,311.7,262.9,309.3,263.5z M301.8,264.6v9.1l0,1
			c0,0.8,0.2,1.3,0.6,1.7c0.4,0.4,0.9,0.6,1.7,0.6c1.1,0,2.1-0.2,3-0.7c0.9-0.5,1.6-1.2,2.1-2.2c0.5-0.9,0.7-2,0.7-3.1
			c0-1.3-0.3-2.5-0.9-3.6c-0.6-1.1-1.4-1.8-2.5-2.2C305.4,264.8,303.9,264.6,301.8,264.6z M301.8,263c2,0,3.4-0.2,4.3-0.7
			c0.9-0.4,1.6-1.1,2.1-1.9c0.5-0.8,0.7-1.8,0.7-3.1c0-1.3-0.2-2.3-0.7-3.1c-0.5-0.8-1.2-1.4-2.1-1.8c-0.9-0.4-2.4-0.6-4.4-0.6V263z
			"/>
		<path class="st0" d="M336.4,268.1h-10.6c0.1,2.6,0.8,4.6,2,6.1c0.9,1.2,2.1,1.7,3.4,1.7c0.8,0,1.6-0.2,2.2-0.7
			c0.7-0.5,1.4-1.3,2.2-2.5l0.7,0.5c-1,2.2-2.2,3.7-3.5,4.6c-1.3,0.9-2.7,1.3-4.4,1.3c-2.9,0-5-1.1-6.5-3.3c-1.2-1.8-1.8-4-1.8-6.7
			c0-3.3,0.9-5.9,2.6-7.8c1.7-1.9,3.8-2.9,6.1-2.9c2,0,3.6,0.8,5.1,2.4C335.5,262.5,336.3,264.9,336.4,268.1z M331.3,266.7
			c0-2.2-0.1-3.8-0.4-4.6c-0.2-0.8-0.6-1.5-1.1-1.9c-0.3-0.3-0.7-0.4-1.2-0.4c-0.7,0-1.3,0.4-1.8,1.1c-0.8,1.2-1.2,2.9-1.2,5.1v0.7
			H331.3z"/>
		<path class="st0" d="M346.3,250.2v24.3c0,1.4,0.2,2.3,0.5,2.6c0.3,0.4,0.9,0.6,1.9,0.7v0.8h-10.4v-0.8c0.9,0,1.5-0.3,1.9-0.8
			c0.3-0.3,0.4-1.2,0.4-2.5v-20.2c0-1.4-0.2-2.2-0.5-2.6c-0.3-0.4-0.9-0.6-1.8-0.7v-0.8H346.3z"/>
		<path class="st0" d="M358,250.2v24.3c0,1.4,0.2,2.3,0.5,2.6c0.3,0.4,0.9,0.6,1.9,0.7v0.8H350v-0.8c0.9,0,1.5-0.3,1.9-0.8
			c0.3-0.3,0.4-1.2,0.4-2.5v-20.2c0-1.4-0.2-2.2-0.5-2.6c-0.3-0.4-0.9-0.6-1.8-0.7v-0.8H358z"/>
		<path class="st0" d="M372.9,275.7c-2.3,2.1-4.5,3.2-6.3,3.2c-1.1,0-2-0.4-2.7-1.1c-0.7-0.7-1.1-1.6-1.1-2.7c0-1.5,0.6-2.8,1.9-4
			c1.3-1.2,4-2.8,8.3-4.8v-2c0-1.5-0.1-2.4-0.2-2.8c-0.2-0.4-0.5-0.7-0.9-1c-0.4-0.3-0.9-0.4-1.5-0.4c-0.9,0-1.6,0.2-2.2,0.6
			c-0.4,0.3-0.5,0.5-0.5,0.9c0,0.3,0.2,0.7,0.6,1.1c0.5,0.6,0.8,1.2,0.8,1.7c0,0.7-0.3,1.3-0.8,1.7c-0.5,0.5-1.2,0.7-2,0.7
			c-0.9,0-1.6-0.3-2.2-0.8c-0.6-0.5-0.9-1.1-0.9-1.9c0-1,0.4-2,1.2-2.9c0.8-0.9,1.9-1.6,3.3-2.1c1.4-0.5,2.9-0.7,4.4-0.7
			c1.8,0,3.3,0.4,4.3,1.2c1.1,0.8,1.8,1.6,2.1,2.6c0.2,0.6,0.3,1.9,0.3,4v7.6c0,0.9,0,1.5,0.1,1.7c0.1,0.2,0.2,0.4,0.3,0.5
			c0.1,0.1,0.3,0.2,0.5,0.2c0.4,0,0.7-0.3,1.1-0.8l0.6,0.5c-0.7,1-1.4,1.8-2.1,2.2c-0.7,0.5-1.6,0.7-2.5,0.7c-1.1,0-2-0.3-2.6-0.8
			C373.4,277.5,373,276.7,372.9,275.7z M372.9,274.1v-6.5c-1.7,1-2.9,2-3.7,3.2c-0.5,0.8-0.8,1.5-0.8,2.3c0,0.6,0.2,1.2,0.7,1.7
			c0.3,0.4,0.8,0.6,1.4,0.6C371.2,275.3,372,274.9,372.9,274.1z"/>
		<path class="st0" d="M392,279.1l-6.5-15.1c-0.8-1.8-1.4-3-1.8-3.5c-0.3-0.4-0.8-0.6-1.4-0.7V259h10.2v0.8c-0.6,0-1.1,0.1-1.3,0.4
			c-0.3,0.3-0.5,0.7-0.5,1.1c0,0.5,0.3,1.5,0.9,2.9l3.2,7.3l2.5-6.3c0.7-1.8,1.1-3.1,1.1-3.8c0-0.4-0.2-0.8-0.5-1.1
			c-0.3-0.3-0.9-0.4-1.6-0.4V259h6.3v0.8c-0.6,0.1-1.1,0.3-1.5,0.7c-0.4,0.4-1,1.5-1.7,3.3l-6.4,15.3H392z"/>
		<path class="st0" d="M412,259v15.5c0,1.4,0.2,2.3,0.5,2.6c0.3,0.4,0.9,0.6,1.9,0.7v0.8h-10.4v-0.8c0.9,0,1.5-0.3,1.9-0.8
			c0.3-0.3,0.4-1.2,0.4-2.5v-11.4c0-1.4-0.2-2.3-0.5-2.6c-0.3-0.4-0.9-0.6-1.8-0.7V259H412z M409.1,249.6c0.9,0,1.6,0.3,2.3,1
			c0.6,0.6,0.9,1.4,0.9,2.3c0,0.9-0.3,1.7-0.9,2.3c-0.6,0.6-1.4,0.9-2.3,0.9c-0.9,0-1.6-0.3-2.2-0.9c-0.6-0.6-0.9-1.4-0.9-2.3
			c0-0.9,0.3-1.7,0.9-2.3C407.4,249.9,408.2,249.6,409.1,249.6z"/>
		<path class="st0" d="M434.9,250.2v22.5c0,1.5,0,2.4,0.1,2.7c0.1,0.5,0.3,0.8,0.6,1c0.3,0.2,0.8,0.4,1.6,0.4v0.7l-8.1,1.6V276
			c-1,1.2-1.8,2-2.6,2.4c-0.8,0.4-1.6,0.6-2.6,0.6c-2.5,0-4.4-1.1-5.8-3.3c-1.2-1.8-1.7-4-1.7-6.7c0-2.1,0.4-4,1.1-5.6
			c0.7-1.7,1.7-2.9,2.9-3.8c1.2-0.8,2.6-1.3,4-1.3c0.9,0,1.7,0.2,2.5,0.5c0.7,0.4,1.5,1,2.3,1.9V255c0-1.5-0.1-2.4-0.2-2.7
			c-0.2-0.4-0.4-0.7-0.7-0.9c-0.3-0.2-0.9-0.3-1.9-0.3v-0.9H434.9z M429.1,263.5c-1-2-2.3-3-3.7-3c-0.5,0-0.9,0.1-1.3,0.4
			c-0.5,0.4-0.9,1.2-1.2,2.3c-0.3,1.1-0.5,2.7-0.5,5c0,2.5,0.2,4.3,0.5,5.5c0.4,1.2,0.8,2,1.5,2.6c0.3,0.3,0.7,0.4,1.3,0.4
			c1.2,0,2.3-1,3.4-2.9V263.5z"/>
		<path class="st0" d="M450.3,275.7c-2.3,2.1-4.5,3.2-6.3,3.2c-1.1,0-2-0.4-2.7-1.1c-0.7-0.7-1.1-1.6-1.1-2.7c0-1.5,0.6-2.8,1.9-4
			c1.3-1.2,4-2.8,8.3-4.8v-2c0-1.5-0.1-2.4-0.2-2.8c-0.2-0.4-0.5-0.7-0.9-1c-0.4-0.3-0.9-0.4-1.5-0.4c-0.9,0-1.6,0.2-2.2,0.6
			c-0.4,0.3-0.5,0.5-0.5,0.9c0,0.3,0.2,0.7,0.6,1.1c0.5,0.6,0.8,1.2,0.8,1.7c0,0.7-0.3,1.3-0.8,1.7c-0.5,0.5-1.2,0.7-2,0.7
			c-0.9,0-1.6-0.3-2.2-0.8c-0.6-0.5-0.9-1.1-0.9-1.9c0-1,0.4-2,1.2-2.9c0.8-0.9,1.9-1.6,3.3-2.1c1.4-0.5,2.9-0.7,4.4-0.7
			c1.8,0,3.3,0.4,4.3,1.2c1.1,0.8,1.8,1.6,2.1,2.6c0.2,0.6,0.3,1.9,0.3,4v7.6c0,0.9,0,1.5,0.1,1.7c0.1,0.2,0.2,0.4,0.3,0.5
			c0.1,0.1,0.3,0.2,0.5,0.2c0.4,0,0.7-0.3,1.1-0.8l0.6,0.5c-0.7,1-1.4,1.8-2.1,2.2c-0.7,0.5-1.6,0.7-2.5,0.7c-1.1,0-2-0.3-2.6-0.8
			C450.8,277.5,450.4,276.7,450.3,275.7z M450.3,274.1v-6.5c-1.7,1-2.9,2-3.7,3.2c-0.5,0.8-0.8,1.5-0.8,2.3c0,0.6,0.2,1.2,0.7,1.7
			c0.3,0.4,0.8,0.6,1.4,0.6C448.6,275.3,449.3,274.9,450.3,274.1z"/>
	</g>
	<g>
		<path class="st0" d="M123.7,332.4v4.9c0,0.9,0.1,1.5,0.2,1.8c0.1,0.2,0.3,0.4,0.7,0.6c0.3,0.1,0.9,0.2,1.7,0.2v0.5h-9.5v-0.5
			c0.9,0,1.4-0.1,1.8-0.2c0.3-0.2,0.5-0.3,0.6-0.6c0.1-0.2,0.2-0.8,0.2-1.8v-11.4c0-0.9-0.1-1.5-0.2-1.8c-0.1-0.2-0.3-0.4-0.7-0.6
			c-0.3-0.1-0.9-0.2-1.7-0.2v-0.5h8.1c2.7,0,4.6,0.4,5.8,1.3c1.2,0.9,1.7,2,1.7,3.4c0,1.1-0.4,2.1-1.1,2.9c-0.8,0.8-1.8,1.4-3.1,1.7
			C127.3,332.3,125.8,332.4,123.7,332.4z M123.7,323.8v7.6c0.3,0,0.5,0,0.7,0c1.1,0,2-0.3,2.6-0.9c0.6-0.6,0.9-1.6,0.9-2.9
			c0-1.3-0.3-2.3-0.9-2.9c-0.6-0.6-1.5-0.9-2.7-0.9H123.7z"/>
		<path class="st0" d="M139.6,328.3v2.7c0.9-1.2,1.6-2.1,2.2-2.5c0.6-0.4,1.3-0.6,1.9-0.6c0.5,0,0.9,0.1,1.2,0.4
			c0.3,0.3,0.5,0.7,0.5,1.3c0,0.6-0.1,1-0.4,1.3c-0.3,0.3-0.7,0.5-1.1,0.5c-0.5,0-0.9-0.1-1.3-0.4c-0.4-0.3-0.6-0.5-0.6-0.5
			c-0.1-0.1-0.2-0.1-0.3-0.1c-0.3,0-0.5,0.1-0.8,0.3c-0.4,0.3-0.7,0.7-0.9,1.3c-0.3,0.8-0.4,1.8-0.4,2.8v2.8l0,0.7
			c0,0.5,0,0.8,0.1,0.9c0.1,0.2,0.3,0.4,0.5,0.5c0.2,0.1,0.6,0.2,1.1,0.2v0.5h-6.9v-0.5c0.6,0,0.9-0.2,1.1-0.4
			c0.2-0.2,0.3-0.9,0.3-1.9v-6.7c0-0.7,0-1.1-0.1-1.3c-0.1-0.2-0.2-0.4-0.4-0.5c-0.2-0.1-0.5-0.2-0.9-0.2v-0.5H139.6z"/>
		<path class="st0" d="M152.3,327.9c1.1,0,2.2,0.3,3.1,0.8c1,0.5,1.7,1.3,2.2,2.3c0.5,1,0.7,2.1,0.7,3.3c0,1.7-0.5,3.1-1.4,4.3
			c-1.1,1.4-2.7,2.1-4.6,2.1c-1.9,0-3.4-0.6-4.5-1.9c-1-1.3-1.6-2.8-1.6-4.4c0-1.7,0.5-3.2,1.6-4.5
			C149,328.6,150.4,327.9,152.3,327.9z M152.3,328.8c-0.5,0-0.9,0.2-1.2,0.5c-0.3,0.3-0.6,1-0.7,2c-0.1,1-0.2,2.3-0.2,4.1
			c0,0.9,0.1,1.8,0.2,2.6c0.1,0.6,0.3,1.1,0.6,1.4s0.7,0.5,1.1,0.5c0.4,0,0.8-0.1,1-0.3c0.4-0.3,0.6-0.7,0.7-1.2
			c0.2-0.8,0.3-2.5,0.3-5c0-1.5-0.1-2.5-0.3-3c-0.2-0.5-0.4-0.9-0.8-1.2C153,328.9,152.7,328.8,152.3,328.8z"/>
		<path class="st0" d="M165.9,329.5v8.4c0,0.8,0.1,1.3,0.3,1.5c0.3,0.3,0.8,0.5,1.6,0.4v0.5h-7.6v-0.5c0.6,0,1-0.1,1.2-0.2
			c0.2-0.1,0.4-0.3,0.5-0.5c0.1-0.2,0.1-0.6,0.1-1.3v-8.4h-1.9v-1.3h1.9v-0.9l0-0.6c0-1.2,0.5-2.3,1.4-3.1c1-0.8,2.3-1.2,3.9-1.2
			c1.1,0,2,0.2,2.5,0.6c0.5,0.4,0.8,0.8,0.8,1.3c0,0.4-0.2,0.7-0.5,1c-0.3,0.3-0.8,0.4-1.3,0.4c-0.5,0-0.9-0.1-1.1-0.3
			c-0.3-0.2-0.4-0.5-0.4-0.8c0-0.1,0-0.2,0.1-0.5c0-0.1,0.1-0.3,0.1-0.4c0-0.2-0.1-0.3-0.2-0.4c-0.1-0.1-0.3-0.2-0.5-0.2
			c-0.3,0-0.5,0.1-0.7,0.3c-0.2,0.2-0.3,0.5-0.3,1l0,2.3v1.5h1.9v1.3H165.9z"/>
		<path class="st0" d="M180.5,333.9h-7c0.1,1.6,0.5,2.9,1.4,3.8c0.6,0.7,1.4,1.1,2.3,1.1c0.5,0,1-0.1,1.5-0.4
			c0.4-0.3,0.9-0.8,1.4-1.6l0.5,0.3c-0.7,1.3-1.5,2.3-2.3,2.8c-0.8,0.6-1.8,0.8-2.9,0.8c-1.9,0-3.3-0.7-4.3-2.1
			c-0.8-1.1-1.2-2.5-1.2-4.1c0-2,0.6-3.6,1.7-4.8c1.2-1.2,2.5-1.8,4.1-1.8c1.3,0,2.4,0.5,3.4,1.5
			C179.9,330.4,180.5,331.9,180.5,333.9z M177.2,333c0-1.4-0.1-2.3-0.2-2.9c-0.2-0.5-0.4-0.9-0.7-1.2c-0.2-0.2-0.4-0.2-0.8-0.2
			c-0.5,0-0.9,0.2-1.2,0.7c-0.5,0.8-0.8,1.8-0.8,3.2v0.5H177.2z"/>
		<path class="st0" d="M190.3,327.9l0.2,4.1H190c-0.6-1.2-1.1-2.1-1.7-2.5c-0.6-0.4-1.2-0.7-1.8-0.7c-0.4,0-0.7,0.1-1,0.4
			c-0.3,0.2-0.4,0.5-0.4,0.8c0,0.2,0.1,0.5,0.3,0.7c0.3,0.4,1.1,1,2.5,1.8c1.3,0.9,2.2,1.6,2.7,2.2c0.4,0.6,0.6,1.3,0.6,2
			c0,0.7-0.2,1.3-0.5,2c-0.4,0.6-0.9,1.1-1.5,1.5c-0.7,0.3-1.4,0.5-2.2,0.5c-0.6,0-1.4-0.2-2.5-0.5c-0.3-0.1-0.5-0.1-0.6-0.1
			c-0.3,0-0.6,0.2-0.8,0.6h-0.5l-0.2-4.3h0.5c0.4,1.1,1,2,1.7,2.6c0.7,0.6,1.4,0.9,2,0.9c0.4,0,0.8-0.1,1.1-0.4
			c0.3-0.3,0.4-0.6,0.4-0.9c0-0.4-0.1-0.8-0.4-1.1c-0.3-0.3-0.9-0.8-1.8-1.4c-1.4-0.9-2.3-1.6-2.7-2.1c-0.6-0.7-0.9-1.5-0.9-2.3
			c0-0.9,0.3-1.8,1-2.5c0.7-0.8,1.7-1.1,3-1.1c0.7,0,1.4,0.2,2,0.5c0.2,0.1,0.4,0.2,0.6,0.2c0.2,0,0.3,0,0.4-0.1
			c0.1-0.1,0.3-0.2,0.5-0.5H190.3z"/>
		<path class="st0" d="M201.2,327.9l0.2,4.1h-0.5c-0.6-1.2-1.1-2.1-1.7-2.5c-0.6-0.4-1.2-0.7-1.8-0.7c-0.4,0-0.7,0.1-1,0.4
			c-0.3,0.2-0.4,0.5-0.4,0.8c0,0.2,0.1,0.5,0.3,0.7c0.3,0.4,1.1,1,2.5,1.8c1.3,0.9,2.2,1.6,2.7,2.2c0.4,0.6,0.6,1.3,0.6,2
			c0,0.7-0.2,1.3-0.5,2c-0.4,0.6-0.9,1.1-1.5,1.5c-0.7,0.3-1.4,0.5-2.2,0.5c-0.6,0-1.4-0.2-2.5-0.5c-0.3-0.1-0.5-0.1-0.6-0.1
			c-0.3,0-0.6,0.2-0.8,0.6h-0.5l-0.2-4.3h0.5c0.4,1.1,1,2,1.7,2.6c0.7,0.6,1.4,0.9,2,0.9c0.4,0,0.8-0.1,1.1-0.4
			c0.3-0.3,0.4-0.6,0.4-0.9c0-0.4-0.1-0.8-0.4-1.1c-0.3-0.3-0.9-0.8-1.8-1.4c-1.4-0.9-2.3-1.6-2.7-2.1c-0.6-0.7-0.9-1.5-0.9-2.3
			c0-0.9,0.3-1.8,1-2.5c0.7-0.8,1.7-1.1,3-1.1c0.7,0,1.4,0.2,2,0.5c0.2,0.1,0.4,0.2,0.6,0.2c0.2,0,0.3,0,0.4-0.1
			c0.1-0.1,0.3-0.2,0.5-0.5H201.2z"/>
		<path class="st0" d="M209,328.3v9.6c0,0.9,0.1,1.4,0.3,1.6c0.2,0.2,0.6,0.4,1.2,0.4v0.5h-6.9v-0.5c0.6,0,1-0.2,1.3-0.5
			c0.2-0.2,0.3-0.7,0.3-1.6v-7.1c0-0.9-0.1-1.4-0.3-1.6c-0.2-0.2-0.6-0.4-1.2-0.4v-0.5H209z M207.1,322.4c0.6,0,1.1,0.2,1.5,0.6
			c0.4,0.4,0.6,0.9,0.6,1.4c0,0.6-0.2,1-0.6,1.4c-0.4,0.4-0.9,0.6-1.5,0.6c-0.6,0-1.1-0.2-1.5-0.6c-0.4-0.4-0.6-0.9-0.6-1.4
			c0-0.6,0.2-1,0.6-1.4C206,322.6,206.5,322.4,207.1,322.4z"/>
		<path class="st0" d="M217.9,327.9c1.1,0,2.2,0.3,3.1,0.8c1,0.5,1.7,1.3,2.2,2.3c0.5,1,0.7,2.1,0.7,3.3c0,1.7-0.5,3.1-1.4,4.3
			c-1.1,1.4-2.7,2.1-4.6,2.1c-1.9,0-3.4-0.6-4.5-1.9c-1-1.3-1.6-2.8-1.6-4.4c0-1.7,0.5-3.2,1.6-4.5
			C214.6,328.6,216,327.9,217.9,327.9z M218,328.8c-0.5,0-0.9,0.2-1.2,0.5c-0.3,0.3-0.6,1-0.7,2c-0.1,1-0.2,2.3-0.2,4.1
			c0,0.9,0.1,1.8,0.2,2.6c0.1,0.6,0.3,1.1,0.6,1.4c0.3,0.3,0.7,0.5,1.1,0.5c0.4,0,0.8-0.1,1-0.3c0.4-0.3,0.6-0.7,0.7-1.2
			c0.2-0.8,0.3-2.5,0.3-5c0-1.5-0.1-2.5-0.3-3c-0.2-0.5-0.4-0.9-0.8-1.2C218.7,328.9,218.3,328.8,218,328.8z"/>
		<path class="st0" d="M231.2,328.3v1.6c0.7-0.7,1.3-1.2,1.9-1.5c0.6-0.3,1.3-0.5,2-0.5c0.8,0,1.5,0.2,2.1,0.7
			c0.5,0.4,0.9,1,1.1,1.6c0.1,0.5,0.2,1.4,0.2,2.8v4.7c0,0.9,0.1,1.5,0.3,1.7c0.2,0.2,0.6,0.4,1.1,0.4v0.5h-6.5v-0.5
			c0.5-0.1,0.8-0.3,1-0.6c0.1-0.2,0.2-0.7,0.2-1.6v-5.4c0-1,0-1.6-0.1-1.9c-0.1-0.3-0.2-0.5-0.4-0.6c-0.2-0.1-0.4-0.2-0.7-0.2
			c-0.8,0-1.5,0.5-2.2,1.6v6.5c0,0.9,0.1,1.5,0.3,1.7c0.2,0.2,0.5,0.4,1,0.5v0.5h-6.5v-0.5c0.5-0.1,0.9-0.2,1.2-0.5
			c0.2-0.2,0.2-0.7,0.2-1.7v-6.8c0-0.9-0.1-1.5-0.3-1.7c-0.2-0.2-0.6-0.4-1.1-0.4v-0.5H231.2z"/>
		<path class="st0" d="M248.6,338.6c-1.6,1.3-3,2-4.2,2c-0.7,0-1.3-0.2-1.8-0.7c-0.5-0.5-0.7-1-0.7-1.7c0-0.9,0.4-1.8,1.3-2.5
			c0.8-0.7,2.7-1.7,5.5-2.9v-1.2c0-0.9-0.1-1.5-0.2-1.7c-0.1-0.2-0.3-0.4-0.6-0.6c-0.3-0.2-0.6-0.3-1-0.3c-0.6,0-1.1,0.1-1.5,0.4
			c-0.2,0.2-0.4,0.3-0.4,0.5c0,0.2,0.1,0.4,0.4,0.7c0.3,0.4,0.5,0.7,0.5,1.1c0,0.4-0.2,0.8-0.5,1.1c-0.3,0.3-0.8,0.4-1.3,0.4
			c-0.6,0-1.1-0.2-1.4-0.5c-0.4-0.3-0.6-0.7-0.6-1.2c0-0.6,0.3-1.2,0.8-1.8c0.5-0.6,1.2-1,2.2-1.3c0.9-0.3,1.9-0.5,2.9-0.5
			c1.2,0,2.2,0.2,2.9,0.7c0.7,0.5,1.2,1,1.4,1.6c0.1,0.4,0.2,1.2,0.2,2.5v4.7c0,0.6,0,0.9,0.1,1c0,0.1,0.1,0.2,0.2,0.3
			c0.1,0.1,0.2,0.1,0.3,0.1c0.2,0,0.5-0.2,0.7-0.5l0.4,0.3c-0.5,0.6-0.9,1.1-1.4,1.4c-0.5,0.3-1,0.4-1.7,0.4c-0.7,0-1.3-0.2-1.7-0.5
			C249,339.7,248.7,339.2,248.6,338.6z M248.6,337.6v-4c-1.1,0.6-1.9,1.3-2.5,2c-0.4,0.5-0.5,0.9-0.5,1.4c0,0.4,0.2,0.7,0.5,1
			c0.2,0.2,0.5,0.3,1,0.3C247.5,338.4,248,338.1,248.6,337.6z"/>
		<path class="st0" d="M260.6,322.8v15c0,0.9,0.1,1.4,0.3,1.6c0.2,0.2,0.6,0.4,1.2,0.4v0.5h-6.9v-0.5c0.6,0,1-0.2,1.3-0.5
			c0.2-0.2,0.3-0.7,0.3-1.6v-12.5c0-0.8-0.1-1.4-0.3-1.6c-0.2-0.2-0.6-0.4-1.2-0.4v-0.5H260.6z"/>
		<path class="st0" d="M288.3,322.4v6.1h-0.5c-0.4-1.6-1.2-2.8-2.3-3.6c-1.1-0.8-2.3-1.3-3.7-1.3c-1.2,0-2.2,0.3-3.2,0.9
			c-1,0.6-1.7,1.5-2.1,2.5c-0.6,1.3-0.9,2.7-0.9,4.3c0,1.6,0.2,3,0.6,4.3c0.4,1.3,1.1,2.3,2,2.9c0.9,0.7,2.1,1,3.5,1
			c1.2,0,2.2-0.2,3.2-0.7c1-0.5,2-1.3,3.1-2.5v1.5c-1,1-2.1,1.8-3.3,2.2c-1.1,0.5-2.5,0.7-4,0.7c-2,0-3.8-0.4-5.3-1.1
			c-1.5-0.8-2.7-1.8-3.6-3.2c-0.8-1.4-1.3-2.9-1.3-4.5c0-1.7,0.5-3.3,1.4-4.8c0.9-1.5,2.2-2.7,3.8-3.5c1.6-0.8,3.3-1.2,5-1.2
			c1.3,0,2.7,0.3,4.1,0.8c0.8,0.3,1.4,0.5,1.6,0.5c0.3,0,0.5-0.1,0.8-0.3c0.2-0.2,0.4-0.5,0.4-1H288.3z"/>
		<path class="st0" d="M296.8,327.9c1.1,0,2.2,0.3,3.1,0.8c1,0.5,1.7,1.3,2.2,2.3c0.5,1,0.7,2.1,0.7,3.3c0,1.7-0.5,3.1-1.4,4.3
			c-1.1,1.4-2.7,2.1-4.6,2.1c-1.9,0-3.4-0.6-4.5-1.9c-1-1.3-1.6-2.8-1.6-4.4c0-1.7,0.5-3.2,1.6-4.5
			C293.5,328.6,295,327.9,296.8,327.9z M296.9,328.8c-0.5,0-0.9,0.2-1.2,0.5c-0.3,0.3-0.6,1-0.7,2c-0.1,1-0.2,2.3-0.2,4.1
			c0,0.9,0.1,1.8,0.2,2.6c0.1,0.6,0.3,1.1,0.6,1.4c0.3,0.3,0.7,0.5,1.1,0.5c0.4,0,0.8-0.1,1-0.3c0.4-0.3,0.6-0.7,0.7-1.2
			c0.2-0.8,0.3-2.5,0.3-5c0-1.5-0.1-2.5-0.3-3c-0.2-0.5-0.4-0.9-0.8-1.2C297.6,328.9,297.3,328.8,296.9,328.8z"/>
		<path class="st0" d="M313,327.9l0.2,4.1h-0.5c-0.6-1.2-1.1-2.1-1.7-2.5c-0.6-0.4-1.2-0.7-1.8-0.7c-0.4,0-0.7,0.1-1,0.4
			c-0.3,0.2-0.4,0.5-0.4,0.8c0,0.2,0.1,0.5,0.3,0.7c0.3,0.4,1.1,1,2.5,1.8c1.3,0.9,2.2,1.6,2.7,2.2c0.4,0.6,0.6,1.3,0.6,2
			c0,0.7-0.2,1.3-0.5,2c-0.4,0.6-0.9,1.1-1.5,1.5c-0.7,0.3-1.4,0.5-2.2,0.5c-0.6,0-1.4-0.2-2.5-0.5c-0.3-0.1-0.5-0.1-0.6-0.1
			c-0.3,0-0.6,0.2-0.8,0.6h-0.5l-0.2-4.3h0.5c0.4,1.1,1,2,1.7,2.6c0.7,0.6,1.4,0.9,2,0.9c0.4,0,0.8-0.1,1.1-0.4
			c0.3-0.3,0.4-0.6,0.4-0.9c0-0.4-0.1-0.8-0.4-1.1c-0.3-0.3-0.9-0.8-1.8-1.4c-1.4-0.9-2.3-1.6-2.7-2.1c-0.6-0.7-0.9-1.5-0.9-2.3
			c0-0.9,0.3-1.8,1-2.5c0.7-0.8,1.7-1.1,3-1.1c0.7,0,1.4,0.2,2,0.5c0.2,0.1,0.4,0.2,0.6,0.2c0.2,0,0.3,0,0.4-0.1
			c0.1-0.1,0.3-0.2,0.5-0.5H313z"/>
		<path class="st0" d="M321.1,328.3v1.6c0.7-0.7,1.4-1.2,2-1.5c0.6-0.3,1.3-0.4,2-0.4c0.8,0,1.5,0.2,2.1,0.5c0.6,0.4,1,0.9,1.3,1.7
			c0.7-0.8,1.4-1.3,2.1-1.7c0.7-0.3,1.4-0.5,2.1-0.5c0.9,0,1.6,0.2,2.1,0.6c0.5,0.4,0.9,0.9,1.1,1.5c0.2,0.6,0.3,1.5,0.3,2.8v5
			c0,0.9,0.1,1.5,0.3,1.7c0.2,0.2,0.6,0.4,1.1,0.4v0.5h-6.6v-0.5c0.5,0,0.9-0.2,1.2-0.6c0.2-0.2,0.2-0.8,0.2-1.6v-5.2
			c0-1.1,0-1.8-0.1-2.1c-0.1-0.3-0.2-0.5-0.4-0.7c-0.2-0.1-0.4-0.2-0.7-0.2c-0.4,0-0.8,0.1-1.2,0.4c-0.4,0.3-0.8,0.7-1.2,1.2v6.5
			c0,0.9,0.1,1.4,0.2,1.6c0.2,0.3,0.6,0.5,1.2,0.5v0.5h-6.6v-0.5c0.4,0,0.6-0.1,0.8-0.3c0.2-0.2,0.3-0.3,0.4-0.5
			c0.1-0.2,0.1-0.7,0.1-1.4v-5.2c0-1.1,0-1.8-0.1-2.1c-0.1-0.3-0.2-0.5-0.5-0.6c-0.2-0.2-0.4-0.2-0.7-0.2c-0.4,0-0.7,0.1-1,0.3
			c-0.4,0.3-0.9,0.7-1.4,1.4v6.5c0,0.9,0.1,1.4,0.3,1.7c0.2,0.3,0.6,0.4,1.1,0.5v0.5h-6.6v-0.5c0.5-0.1,0.9-0.2,1.2-0.5
			c0.2-0.2,0.2-0.7,0.2-1.7v-6.8c0-0.9-0.1-1.5-0.3-1.7c-0.2-0.2-0.6-0.4-1.1-0.4v-0.5H321.1z"/>
		<path class="st0" d="M350.1,333.9h-7c0.1,1.6,0.5,2.9,1.4,3.8c0.6,0.7,1.4,1.1,2.3,1.1c0.5,0,1-0.1,1.5-0.4
			c0.4-0.3,0.9-0.8,1.4-1.6l0.5,0.3c-0.7,1.3-1.5,2.3-2.3,2.8c-0.8,0.6-1.8,0.8-2.9,0.8c-1.9,0-3.3-0.7-4.3-2.1
			c-0.8-1.1-1.2-2.5-1.2-4.1c0-2,0.6-3.6,1.7-4.8c1.2-1.2,2.5-1.8,4.1-1.8c1.3,0,2.4,0.5,3.4,1.5C349.5,330.4,350,331.9,350.1,333.9
			z M346.7,333c0-1.4-0.1-2.3-0.2-2.9c-0.2-0.5-0.4-0.9-0.7-1.2c-0.2-0.2-0.4-0.2-0.8-0.2c-0.5,0-0.9,0.2-1.2,0.7
			c-0.5,0.8-0.8,1.8-0.8,3.2v0.5H346.7z"/>
		<path class="st0" d="M356.8,323.9v4.4h3v1.3h-3v7.5c0,0.7,0,1.1,0.1,1.4c0.1,0.2,0.2,0.4,0.4,0.5c0.2,0.1,0.3,0.2,0.5,0.2
			c0.6,0,1.2-0.4,1.7-1.3l0.4,0.3c-0.7,1.7-1.9,2.5-3.6,2.5c-0.8,0-1.5-0.2-2.1-0.6c-0.6-0.4-0.9-0.9-1.1-1.4
			c-0.1-0.3-0.1-1.1-0.1-2.4v-6.5h-1.7v-0.5c1.2-0.8,2.1-1.6,2.9-2.4c0.8-0.8,1.5-1.8,2.1-2.8H356.8z"/>
		<path class="st0" d="M366.1,328.3v9.6c0,0.9,0.1,1.4,0.3,1.6c0.2,0.2,0.6,0.4,1.2,0.4v0.5h-6.9v-0.5c0.6,0,1-0.2,1.3-0.5
			c0.2-0.2,0.3-0.7,0.3-1.6v-7.1c0-0.9-0.1-1.4-0.3-1.6c-0.2-0.2-0.6-0.4-1.2-0.4v-0.5H366.1z M364.2,322.4c0.6,0,1.1,0.2,1.5,0.6
			c0.4,0.4,0.6,0.9,0.6,1.4c0,0.6-0.2,1-0.6,1.4c-0.4,0.4-0.9,0.6-1.5,0.6c-0.6,0-1.1-0.2-1.5-0.6c-0.4-0.4-0.6-0.9-0.6-1.4
			c0-0.6,0.2-1,0.6-1.4C363.1,322.6,363.6,322.4,364.2,322.4z"/>
		<path class="st0" d="M379.4,337.3l0.4,0.3c-0.6,1.1-1.4,1.9-2.3,2.4c-0.9,0.5-1.9,0.8-2.9,0.8c-1.7,0-3.1-0.6-4.1-1.8
			c-1-1.2-1.5-2.7-1.5-4.4c0-1.6,0.5-3.1,1.4-4.3c1.1-1.5,2.7-2.3,4.7-2.3c1.3,0,2.4,0.3,3.2,0.9c0.8,0.6,1.2,1.3,1.2,2.1
			c0,0.5-0.2,0.9-0.5,1.2c-0.3,0.3-0.7,0.4-1.2,0.4c-0.5,0-1-0.2-1.3-0.5c-0.4-0.3-0.6-0.9-0.7-1.8c-0.1-0.5-0.2-0.9-0.4-1.1
			c-0.2-0.2-0.5-0.3-0.7-0.3c-0.4,0-0.8,0.2-1.1,0.7c-0.5,0.7-0.7,1.7-0.7,3.1c0,1.1,0.2,2.2,0.6,3.3c0.4,1,0.9,1.8,1.6,2.3
			c0.5,0.4,1.1,0.6,1.8,0.6c0.4,0,0.9-0.1,1.3-0.3C378.4,338.2,378.8,337.8,379.4,337.3z"/>
	</g>
	<path class="st0" d="M181.8,166.3c0.3,0.2,3,2,6.8,5.4c-5,1.9-10.1,4.5-14,8.2c-3.6,3.4-8.7,9.1-14.8,16.2
		c-7.6,7.4-15.7,16-24.5,26l-0.6,0.7c-17.7,19.8-31.9,33.8-42.5,42c-10.6,8.1-19.8,12.2-27.6,12.2c-4.4,0-8.4-1.2-12-3.6
		c-3.6-2.4-5.4-4.9-5.4-7.6c0-0.5,0.1-0.9,0.2-1.1c0.1-0.2,0.3-0.3,0.7-0.4c0.5,0,1.3,0.1,2.2,0.2c1,0.2,1.7,0.2,2.1,0.2
		c2.5,0,4.4-0.6,5.8-1.7c1.4-1.1,2.1-2.6,2.1-4.6c0-2-0.7-3.6-2.2-4.9c-1.4-1.3-3.4-1.9-5.8-1.9c-3.2,0-5.8,1-7.8,3
		c-2,2-3,4.6-3,7.8c0,5.3,2.4,9.8,7.2,13.3c3.7,2.7,8.1,4.4,13.3,5l0,0c0,0,0.1,0,0.2,0c1.5,0.2,3.1,0.3,4.8,0.3
		c1.1,0,2.1-0.1,3.2-0.1c13.3-0.3,39.4-3.3,53.3-21.1c16.4-21,45.7-64,69.1-83.3c5.1,11.5,5.5,41.8-33.4,45.2l2.5,1.4
		c0,0,20.4,12.3,8.8,33.1c-14.6,26.3-33.3,27.5-41.2,22.2c-8-4.2,1.1-29.4,27.8-28.2c0.5-2-14.1-8.1-30.3,12.8
		c-4.7,5.8-7.2,24.6,19.7,20.8c27.7-3.7,58.3-30.8,20-60.5c5.1-0.5,64.6,0.7,31.4-50.7c0,0,0,0,0-0.1c4.2-2.9,8.2-4.9,11.8-5.6
		c0,0-7,0.4-15.3,2.7c-1.9-1.6-9-7.5-14.4-8.6c-5-1.3-10.9-2-17.6-2c-11.7,0-23.4,1.9-35.1,5.6c-11.7,3.8-22.8,9.2-33.3,16.4
		c-8.6,5.8-15.2,11.8-19.7,17.8c-4.6,6-6.8,11.8-6.8,17.3c0,4.9,1.8,8.8,5.3,11.7c3.5,2.9,8.3,4.3,14.3,4.3c7.5,0,15.3-1.8,23.3-5.4
		c8-3.6,14.9-8.5,20.8-14.6c4.3-4.6,7.8-9.4,10.5-14.4c2.7-5,4.1-8.8,4.1-11.4c0-0.6-0.1-1.1-0.4-1.5c-0.3-0.4-0.7-0.6-1.2-0.6
		c-0.8,0,0.3,1-1.2,4.4c-1.5,3.4-3.3,7.7-5.4,10.8c-9.6,13.8-17.1,17.3-26.4,22.8c-9.3,5.4-18.4,5.6-25.2,5.6c-4.1,0-7.4-1.1-10-3.3
		c-2.5-2.2-3.8-5.1-3.8-8.7c0-5.7,3.1-12,9.2-18.9c6.2-6.8,14.5-13.1,25-18.9c9.5-5.2,19-9.1,28.6-11.8c9.6-2.6,19.1-3.9,28.5-3.9
		C163.1,162.8,177.2,163.4,181.8,166.3z"/>
	<path class="st0" d="M364.5,159.3c-24.2,10-104.6,124.7-131.7,114.2c15.5-6.2,35.1-34.4,62.5-79.9c4.5-7.1,9.1-13.1,12.9-18.5
		c1.1-0.8,2-1.6,2.8-2.5c7.9-9,11.2-11.8,4.7-11.8c0,0-2.1,1.7-5.6,4.9c-7.1,5.5-19.5,13.1-29.3,7.7c-14.5-8-36.3-24.7-58.9,1.9
		c-4.8,5-12.7,32.9,21.1,28.2C252.6,201,263,193,262,188c-2-1-21.4,17.7-35.5,10c-3.8-3-10.9-23.7,14.8-29.3
		c10.8-2.1,14.3,11.3,25.7,13.7c6.4,1.3,17.1,0.9,26.5-1.3c-22.7,22.3-56.6,60-69.2,97.5c0,0,26.2,5,64.1-33.5
		c37-44,76.5-90,82.4-78c-3.9,3-4.9,12.5,3.5,10.5C382.7,175.5,384.2,157.8,364.5,159.3z"/>
	<path class="st1" d="M7.7,302.4c0,0,117.8-10,213.2-8c95.4,2,271.4,3.9,271.4,3.9s-167.1,18.1-376.2,4.1
		C67.6,305,14.3,303.7,7.7,302.4z"/>
</g>
</svg>
