<?xml version="1.0" encoding="utf-8"?>
<!-- Generator: Adobe Illustrator 26.2.1, SVG Export Plug-In . SVG Version: 6.00 Build 0)  -->
<svg version="1.1" id="Capa_1" xmlns="http://www.w3.org/2000/svg" xmlns:xlink="http://www.w3.org/1999/xlink" x="0px" y="0px"
	 viewBox="0 0 90 90" style="enable-background:new 0 0 90 90;" xml:space="preserve">
<style type="text/css">
	.st0{fill:#FF0000;}
</style>
<g>
	<path class="st0" d="M40.1,53.9c0,8-5.2,13.9-15.2,13.9H7.5V39.9h16.5c3.4,0,4.8-2.2,4.8-4.7c0-2.5-1.4-4.7-4.8-4.7H7.5v-8.3h16.3
		c8.7,0,13.9,5.9,13.9,13c0,3.3-1.6,6.3-4.1,8.5C37.5,45.7,40.1,49.1,40.1,53.9z M31,53.9c0-3.3-2.1-5.7-6.2-5.7h-8.7v11.3h8.7
		C28.9,59.5,31,57.1,31,53.9z"/>
	<path class="st0" d="M57.7,43.6l-4.6,13.1L40.7,22.2h9.6L57.7,43.6z M82.5,22.2L66.1,67.8h-8.9v-0.1l15.7-45.5H82.5z"/>
</g>
</svg>
