<?xml version="1.0" encoding="utf-8"?>
<!-- Generator: Adobe Illustrator 26.2.1, SVG Export Plug-In . SVG Version: 6.00 Build 0)  -->
<svg version="1.1" id="Capa_1" xmlns="http://www.w3.org/2000/svg" xmlns:xlink="http://www.w3.org/1999/xlink" x="0px" y="0px"
	 viewBox="0 0 90 90" style="enable-background:new 0 0 90 90;" xml:space="preserve">
<style type="text/css">
	.st0{fill:#FF0000;}
	.st1{fill:#039B98;}
	.st2{fill:#E6007E;}
	.st3{fill:#420285;}
	.st4{fill:#0084C2;}
</style>
<g>
	<path class="st0" d="M-61.2,59.1c0,8-5.2,13.9-15.2,13.9h-17.4V45.2h16.5c3.4,0,4.8-2.2,4.8-4.7c0-2.5-1.4-4.7-4.8-4.7h-16.5v-8.3
		h16.3c8.7,0,13.9,5.9,13.9,13c0,3.3-1.6,6.3-4.1,8.5C-63.8,50.9-61.2,54.3-61.2,59.1z M-70.2,59.1c0-3.3-2.1-5.7-6.2-5.7h-8.7v11.3
		h8.7C-72.3,64.7-70.2,62.3-70.2,59.1z"/>
	<path class="st0" d="M-43.5,48.8l-4.6,13.1l-12.4-34.5h9.6L-43.5,48.8z M-18.7,27.5L-35.2,73H-44v-0.1l15.7-45.5H-18.7z"/>
</g>
<g>
	<path class="st1" d="M-76.5,68.8h-7.7v-6.5h7.7V68.8z M-76.5,90.1l-7.7,7.6V74.5h7.7V90.1z M-59.9,95.4v7.3h-20.9l7.5-7.3H-59.9z"
		/>
	<path class="st1" d="M-15.5,61.9v40.8h-7.7V80.9l-12,12.8h-0.5l-11.9-12.8v21.9h-7.7V61.9h0.5l19.4,21.4l19.4-21.4H-15.5z"/>
</g>
<text transform="matrix(1 0 0 1 113.6296 -21.7742)" class="st0" style="font-family:'MADEEvolveSansEVO-Bold'; font-size:12px;">LM</text>
<g>
	<path class="st2" d="M-79.6,3.3h-8.8v-7.5h8.8V3.3z M-79.6,27.7l-8.8,8.8V9.8h8.8V27.7z M-60.5,33.8v8.4h-24l8.6-8.4H-60.5z"/>
	<path class="st2" d="M-40.4,23.2H-46v19.1h-8.8V-4.2h8.8v19h5.4l12.2-19h9.7l-14,22.9l15,23.6h-11L-40.4,23.2z"/>
</g>
<g>
	<path class="st3" d="M-48.3,35.1v8.5h-30.4v-8.5H-48.3z M-78.7,54.1h26v8.4h-17.2v18.9h-8.8V54.1z"/>
	<path class="st3" d="M-27.4,65.5h-6.4v15.9h-8.8V57.1h17c4.4,0,7.2-2.8,7.2-6.8c0-4-2.8-6.8-7.2-6.8h-17v-8.5h17.2
		c10.3,0,16.1,6.8,16.1,15.2c0,6.2-3,11.5-8.8,13.9l9.9,17.2h-9.9L-27.4,65.5z"/>
</g>
<text transform="matrix(1 0 0 1 93.8742 -20.8657)" class="st0" style="font-family:'MADEEvolveSansEVO-Bold'; font-size:12px;">FR</text>
<g>
	<path class="st4" d="M35.9,32.9H10.5v-7.1h25.4V32.9z M34.2,48.7H10.5v-7h23.7V48.7z M36.2,57.5v7H10.5v-7H36.2z"/>
	<path class="st4" d="M79.5,25.5v39h-7.4V43.6L60.7,55.8h-0.5L48.8,43.6v20.9h-7.4v-39h0.4l18.5,20.5L79,25.5H79.5z"/>
</g>
</svg>
