<?xml version="1.0" encoding="utf-8"?>
<!-- Generator: Adobe Illustrator 26.2.1, SVG Export Plug-In . SVG Version: 6.00 Build 0)  -->
<svg version="1.1" id="Capa_1" xmlns="http://www.w3.org/2000/svg" xmlns:xlink="http://www.w3.org/1999/xlink" x="0px" y="0px"
	 viewBox="0 0 100 100" style="enable-background:new 0 0 100 100;" xml:space="preserve">
<style type="text/css">
	.st0{fill:#08BDBD;}
	.st1{fill:#8889B9;}
	.st2{fill:#FFFFFF;}
	.st3{fill:#A3A3CD;}
	.st4{fill:#472B29;}
	.st5{fill:#565FA1;}
	.st6{fill:#FEFDEF;}
</style>
<g>
	<g transform="scale(2.56,2.56)">
		<path class="st0" d="M30.1,4.7c-0.2,0-0.4,0.2-0.4,0.4s0.2,0.4,0.4,0.4s0.4-0.2,0.4-0.4S30.3,4.7,30.1,4.7z"/>
		<path class="st0" d="M19.5,5.1c-8,0-14.5,6.5-14.5,14.5S11.5,34,19.5,34S34,27.5,34,19.5S27.5,5.1,19.5,5.1z"/>
		<path class="st0" d="M32.4,4.3c-0.9,0-1.6,0.7-1.6,1.6s0.7,1.6,1.6,1.6c0.9,0,1.6-0.7,1.6-1.6S33.3,4.3,32.4,4.3z"/>
		<path class="st1" d="M34,8.6c-0.4,0-0.8,0.3-0.8,0.8s0.3,0.8,0.8,0.8s0.8-0.3,0.8-0.8S34.4,8.6,34,8.6z"/>
		<path class="st0" d="M31.6,28.9c-0.4,0-0.8,0.3-0.8,0.8s0.3,0.8,0.8,0.8s0.8-0.3,0.8-0.8S32.1,28.9,31.6,28.9z M5.9,23
			c-0.9,0-1.6,0.7-1.6,1.6c0,0.9,0.7,1.6,1.6,1.6s1.6-0.7,1.6-1.6C7.4,23.7,6.7,23,5.9,23z"/>
		<path class="st1" d="M9.8,33.2C9.3,33.2,9,33.6,9,34s0.3,0.8,0.8,0.8s0.8-0.3,0.8-0.8S10.2,33.2,9.8,33.2z"/>
		<path class="st2" d="M7.2,19.1c-0.5,0-1,0.4-1,1s0.4,1,1,1s1-0.4,1-1S7.8,19.1,7.2,19.1z M31.1,12.5c-0.3,0-0.6,0.3-0.6,0.6
			s0.3,0.6,0.6,0.6s0.6-0.3,0.6-0.6S31.4,12.5,31.1,12.5z"/>
		<g>
			<path class="st3" d="M19.5,10c-5.2,0-9.5,4.2-9.5,9.5s4.2,9.5,9.5,9.5s9.5-4.2,9.5-9.5S24.8,10,19.5,10z"/>
			<path class="st4" d="M19.5,29.2c-5.4,0-9.7-4.4-9.7-9.7s4.4-9.7,9.7-9.7s9.7,4.4,9.7,9.7S24.9,29.2,19.5,29.2z M19.5,10.3
				c-5.1,0-9.2,4.1-9.2,9.2s4.1,9.2,9.2,9.2s9.2-4.1,9.2-9.2S24.6,10.3,19.5,10.3z"/>
		</g>
		<g>
			<path class="st5" d="M19.5,11.4c-4.4,0-8,3.6-8,8s3.6,8,8,8s8-3.6,8-8S24,11.4,19.5,11.4z"/>
		</g>
		<g>
			<path class="st4" d="M27.1,17.4c-0.1,0-0.2-0.1-0.2-0.1c0-0.1-0.1-0.2-0.1-0.3c-0.2-0.4-0.3-0.8-0.6-1.2c-0.1-0.1,0-0.2,0.1-0.3
				c0.1-0.1,0.2,0,0.3,0.1c0.2,0.4,0.4,0.9,0.6,1.3c0,0.1,0.1,0.2,0.1,0.4C27.3,17.3,27.3,17.4,27.1,17.4
				C27.2,17.4,27.1,17.4,27.1,17.4z"/>
		</g>
		<g>
			<path class="st4" d="M19.5,27.6c-4.5,0-8.2-3.6-8.2-8.1s3.7-8.1,8.2-8.1c2.3,0,4.6,1,6.1,2.7c0.1,0.1,0.2,0.3,0.3,0.4
				c0.1,0.1,0.1,0.2,0,0.3c-0.1,0.1-0.2,0.1-0.3,0c-0.1-0.1-0.2-0.3-0.3-0.4c-1.5-1.7-3.6-2.6-5.8-2.6c-4.3,0-7.8,3.5-7.8,7.7
				s3.5,7.7,7.8,7.7s7.8-3.5,7.8-7.7c0-0.4,0-0.8-0.1-1.2c0-0.1,0.1-0.2,0.2-0.2c0.1,0,0.2,0.1,0.2,0.2c0.1,0.4,0.1,0.8,0.1,1.2
				C27.7,24,24,27.6,19.5,27.6z"/>
		</g>
		<g>
			<path class="st6" d="M24,16.4c0.1-0.7,0.1-1.5-0.2-2.3c-1.4,0-2.5,1.1-2.5,1.1s0,0,0,0c0,0,0,0-0.1,0h-3.5c0,0,0,0,0,0
				c0,0,0,0,0,0s-1.1-1.1-2.5-1.1c-0.3,0.8-0.3,1.6-0.2,2.3c-0.6,0.7-1,1.5-1,2.5c0,2,1.7,3.7,3.7,3.7h0.4c-0.5,0.3-0.9,0.8-1,1.4
				c-0.7,0.1-1.6,0.1-2-0.5c-0.7-1.1-1.1-1.1-1.4-1.1c-0.4,0-0.4,0.4,0,0.7c0.4,0.4,0.4,0.4,0.7,1.1c0.3,0.6,1.1,1.3,2.6,1v1.4
				c0,0.2,0,0.3,0.1,0.5c0.9,0.2,2.5,0.4,4.6-0.1c0-0.1,0.1-0.3,0.1-0.4v-2.3c0-0.7-0.4-1.4-1-1.7h0.4c2,0,3.7-1.7,3.7-3.7
				C25,18,24.6,17.1,24,16.4z"/>
			<path class="st4" d="M19.3,27.5c-0.9,0-1.6-0.1-2.1-0.2c-0.1,0-0.1-0.1-0.1-0.1C17,27,17,26.8,17,26.6v-1.2
				c-1.8,0.2-2.5-0.8-2.6-1.2c-0.3-0.7-0.3-0.7-0.7-1c-0.3-0.3-0.4-0.6-0.3-0.8c0.1-0.2,0.2-0.3,0.4-0.3c0.5,0,0.9,0.1,1.6,1.1
				c0.3,0.5,1,0.5,1.6,0.5c0.1-0.4,0.3-0.7,0.6-1c-2.1-0.1-3.7-1.8-3.7-3.9c0-1,0.3-1.9,1-2.6c-0.1-0.7,0-1.5,0.2-2.3
				c0-0.1,0.1-0.1,0.2-0.1c1.3,0,2.3,0.8,2.6,1.1h3.5c0.2-0.2,1.2-1.1,2.6-1.1c0.1,0,0.2,0.1,0.2,0.1c0.3,0.8,0.3,1.6,0.2,2.3
				c0.6,0.7,1,1.6,1,2.6c0,2.1-1.7,3.8-3.7,3.9c0.4,0.4,0.6,0.9,0.6,1.5v2.3c0,0.2,0,0.3-0.1,0.5c0,0.1-0.1,0.1-0.1,0.1
				C20.9,27.5,20.1,27.5,19.3,27.5z M17.4,26.9c0.9,0.2,2.4,0.4,4.2-0.1c0-0.1,0-0.2,0-0.3v-2.3c0-0.6-0.3-1.2-0.9-1.5
				c-0.1,0-0.1-0.1-0.1-0.2c0-0.1,0.1-0.1,0.2-0.1h0.4c1.9,0,3.5-1.6,3.5-3.5c0-0.9-0.3-1.7-0.9-2.4c0,0-0.1-0.1,0-0.2
				c0.1-0.6,0.1-1.3-0.1-2c-1.1,0.1-2,0.8-2.2,1c0,0.1-0.1,0.1-0.2,0.1c0,0,0,0,0,0l-3.5,0c-0.1,0-0.1,0-0.2-0.1l0,0
				c0,0-1-0.9-2.2-1c-0.2,0.7-0.3,1.4-0.1,2c0,0.1,0,0.1,0,0.2c-0.6,0.7-0.9,1.5-0.9,2.4c0,1.9,1.6,3.5,3.5,3.5h0.4
				c0.1,0,0.2,0.1,0.2,0.1c0,0.1,0,0.2-0.1,0.2c-0.5,0.3-0.8,0.7-0.9,1.2c0,0.1-0.1,0.2-0.2,0.2c-1,0.1-1.8-0.1-2.2-0.6
				c-0.6-1-0.9-1-1.3-1c-0.1,0-0.1,0-0.1,0c0,0,0,0.2,0.2,0.4c0.4,0.4,0.4,0.4,0.7,1.1c0.1,0.3,0.7,1.2,2.4,0.9c0.1,0,0.1,0,0.2,0
				c0,0,0.1,0.1,0.1,0.1v1.4C17.4,26.7,17.4,26.8,17.4,26.9z"/>
		</g>
		<g>
			<path class="st6" d="M23.6,20.1c-0.4,0.8-1.1,1.4-2.5,1.5"/>
			<path class="st4" d="M21.1,21.7C21.1,21.7,21,21.7,21.1,21.7c-0.1-0.1-0.1-0.2,0-0.2c1.5-0.1,2.1-0.9,2.4-1.5c0,0,0.1-0.1,0.1,0
				c0,0,0.1,0.1,0,0.1C23.3,21,22.4,21.6,21.1,21.7C21.1,21.7,21.1,21.7,21.1,21.7z"/>
		</g>
		<g>
			<path class="st6" d="M23.8,18.5c0,0.3,0,0.6,0,0.9"/>
			<path class="st4" d="M23.8,19.5C23.8,19.5,23.8,19.5,23.8,19.5c-0.1,0-0.1-0.1-0.1-0.1c0.1-0.3,0.1-0.6,0-0.9
				c0-0.1,0-0.1,0.1-0.1c0.1,0,0.1,0,0.1,0.1C24,18.8,24,19.1,23.8,19.5C23.9,19.5,23.8,19.5,23.8,19.5z"/>
		</g>
		<g>
			<path class="st6" d="M23.1,17.1c0.2,0.2,0.4,0.5,0.6,0.8"/>
			<path class="st4" d="M23.7,18C23.6,18,23.6,18,23.7,18c-0.2-0.4-0.4-0.7-0.6-0.8c0,0-0.1-0.1,0-0.1c0,0,0.1-0.1,0.1,0
				c0.3,0.2,0.5,0.5,0.6,0.8C23.8,18,23.7,18,23.7,18C23.7,18,23.7,18,23.7,18z"/>
		</g>
	</g>
</g>
</svg>
