<?xml version="1.0" encoding="utf-8"?>
<!-- Generator: Adobe Illustrator 26.2.1, SVG Export Plug-In . SVG Version: 6.00 Build 0)  -->
<svg version="1.1" id="Capa_1" xmlns="http://www.w3.org/2000/svg" xmlns:xlink="http://www.w3.org/1999/xlink" x="0px" y="0px"
	 viewBox="0 0 100 100" style="enable-background:new 0 0 100 100;" xml:space="preserve">
<style type="text/css">
	.st0{fill:#5C7CFA;}
	.st1{fill:#08BDBD;}
	.st2{fill:#FFFFFF;}
	.st3{fill:#127AD8;}
	.st4{fill:#472B29;}
	.st5{fill:#FDFCEE;}
</style>
<g>
	<g transform="scale(2.56,2.56)">
		<path class="st0" d="M5.1,10.5c-0.4,0-0.8,0.3-0.8,0.8s0.3,0.8,0.8,0.8s0.8-0.3,0.8-0.8S5.5,10.5,5.1,10.5z"/>
		<path class="st1" d="M30.1,4.7c-0.2,0-0.4,0.2-0.4,0.4s0.2,0.4,0.4,0.4s0.4-0.2,0.4-0.4S30.3,4.7,30.1,4.7z"/>
		<path class="st1" d="M19.5,5.1c-8,0-14.5,6.5-14.5,14.5S11.5,34,19.5,34S34,27.5,34,19.5S27.5,5.1,19.5,5.1z"/>
		<path class="st1" d="M32.4,4.3c-0.9,0-1.6,0.7-1.6,1.6s0.7,1.6,1.6,1.6c0.9,0,1.6-0.7,1.6-1.6S33.3,4.3,32.4,4.3z"/>
		<path class="st0" d="M34,8.6c-0.4,0-0.8,0.3-0.8,0.8s0.3,0.8,0.8,0.8s0.8-0.3,0.8-0.8S34.4,8.6,34,8.6z"/>
		<path class="st1" d="M31.6,28.9c-0.4,0-0.8,0.3-0.8,0.8s0.3,0.8,0.8,0.8s0.8-0.3,0.8-0.8S32.1,28.9,31.6,28.9z M5.9,23
			c-0.9,0-1.6,0.7-1.6,1.6c0,0.9,0.7,1.6,1.6,1.6s1.6-0.7,1.6-1.6C7.4,23.7,6.7,23,5.9,23z"/>
		<path class="st0" d="M9.8,33.2C9.3,33.2,9,33.6,9,34s0.3,0.8,0.8,0.8s0.8-0.3,0.8-0.8S10.2,33.2,9.8,33.2z"/>
		<path class="st2" d="M7.2,19.9c-0.5,0-1,0.4-1,1s0.4,1,1,1s1-0.4,1-1S7.8,19.9,7.2,19.9z"/>
		<path class="st1" d="M8.2,25.8c-0.2,0-0.4,0.2-0.4,0.4s0.2,0.4,0.4,0.4s0.4-0.2,0.4-0.4S8.4,25.8,8.2,25.8z"/>
		<path class="st2" d="M31.2,12.9c-0.2,0-0.4,0.2-0.4,0.4s0.2,0.4,0.4,0.4s0.4-0.2,0.4-0.4S31.5,12.9,31.2,12.9z"/>
		<g>
			<path class="st3" d="M13.7,28.2c-1.6,0-2.9-1.3-2.9-2.9V13.7c0-1.6,1.3-2.9,2.9-2.9h11.7c1.6,0,2.9,1.3,2.9,2.9v11.7
				c0,1.6-1.3,2.9-2.9,2.9H13.7z"/>
			<path class="st4" d="M25.4,11.1c1.4,0,2.6,1.2,2.6,2.6v11.7c0,1.4-1.2,2.6-2.6,2.6H13.7c-1.4,0-2.6-1.2-2.6-2.6V13.7
				c0-1.4,1.2-2.6,2.6-2.6H25.4 M25.4,10.5H13.7c-1.7,0-3.1,1.4-3.1,3.1v11.7c0,1.7,1.4,3.1,3.1,3.1h11.7c1.7,0,3.1-1.4,3.1-3.1
				V13.7C28.5,12,27.1,10.5,25.4,10.5z"/>
		</g>
		<g>
			<path class="st5" d="M24.8,26.8H14.3c-1.1,0-1.9-0.9-1.9-1.9V14.2c0-1.1,0.9-1.9,1.9-1.9h10.6c1.1,0,1.9,0.9,1.9,1.9v10.7
				C26.7,25.9,25.9,26.8,24.8,26.8z"/>
		</g>
		<g>
			<path class="st4" d="M26.8,18.5c-0.1,0-0.2-0.1-0.2-0.2v-1.5c0-0.1,0.1-0.2,0.2-0.2s0.2,0.1,0.2,0.2v1.5
				C27,18.4,26.9,18.5,26.8,18.5z"/>
		</g>
		<g>
			<path class="st4" d="M26.8,15.8c-0.1,0-0.2-0.1-0.2-0.2v-0.8c0-0.1,0.1-0.2,0.2-0.2s0.2,0.1,0.2,0.2v0.8
				C27,15.7,26.9,15.8,26.8,15.8z"/>
		</g>
		<g>
			<path class="st4" d="M25,27H14.1c-1.1,0-2-0.9-2-2V14.1c0-1.1,0.9-2,2-2H24c0.1,0,0.2,0.1,0.2,0.2s-0.1,0.2-0.2,0.2h-9.9
				c-0.9,0-1.6,0.7-1.6,1.6V25c0,0.9,0.7,1.6,1.6,1.6H25c0.9,0,1.6-0.7,1.6-1.6v-5.6c0-0.1,0.1-0.2,0.2-0.2s0.2,0.1,0.2,0.2V25
				C27,26.1,26.1,27,25,27z"/>
		</g>
		<g>
			<path class="st3" d="M23.6,20.2v2.7H22l0-2.7c0-0.7-0.3-1.2-0.9-1.2c-0.5,0-0.7,0.3-0.9,0.6c0,0.1,0,0.3,0,0.4v2.8h-1.6
				c0,0,0-4.6,0-5h1.6v0.8l0,0l0,0l0,0c0.2-0.4,0.6-0.8,1.5-0.8C22.8,17.8,23.6,18.5,23.6,20.2z"/>
			<path class="st4" d="M23.6,23H22c-0.1,0-0.2-0.1-0.2-0.2l0-2.7c0-0.3-0.1-1-0.7-1c-0.4,0-0.6,0.4-0.7,0.5c0,0,0,0.2,0,0.4v2.8
				c0,0.1-0.1,0.2-0.2,0.2h-1.6c0,0-0.1,0-0.2,0c0,0,0-0.1,0-0.2c0,0,0-4.6,0-5c0,0,0-0.1,0-0.2c0,0,0.1-0.1,0.2-0.1h1.6
				c0.1,0,0.2,0.1,0.2,0.2V18c0.4-0.3,0.8-0.5,1.3-0.5c0.6,0,1.1,0.2,1.5,0.5c0.4,0.4,0.7,1.1,0.7,2v2.7C23.8,23,23.8,23,23.6,23z
				 M22.2,22.7h1.2v-2.5c0-0.8-0.2-1.4-0.5-1.8c-0.3-0.3-0.7-0.4-1.2-0.4c-0.8,0-1.2,0.4-1.4,0.7c-0.1,0.2-0.3,0.2-0.4,0
				c0,0,0-0.1,0-0.2V18h-1.2c0,0.9,0,3.9,0,4.6H20V20c0-0.2,0-0.4,0.1-0.5c0.2-0.5,0.6-0.7,1.1-0.7c0.7,0,1.1,0.5,1.1,1.4L22.2,22.7
				z"/>
		</g>
		<g>
			<path class="st3" d="M16.6,15.5c-0.5,0-0.8,0.3-0.8,0.8c0,0.4,0.3,0.8,0.8,0.8l0,0c0.5,0,0.8-0.4,0.8-0.8
				C17.3,15.9,17,15.5,16.6,15.5z"/>
			<path class="st4" d="M16.6,17.3c-0.6,0-1-0.4-1-1s0.4-1,1-1c0.5,0,1,0.4,1,0.9C17.5,16.9,17.1,17.3,16.6,17.3z M16.6,15.7
				c-0.4,0-0.6,0.2-0.6,0.6c0,0.4,0.2,0.6,0.6,0.6c0.4,0,0.6-0.2,0.6-0.6C17.1,16,16.9,15.7,16.6,15.7z"/>
		</g>
		<g>
			<path class="st3" d="M15.8,17.8h1.6v5h-1.6V17.8z"/>
			<path class="st4" d="M17.4,23h-1.6c-0.1,0-0.2-0.1-0.2-0.2v-5c0-0.1,0.1-0.2,0.2-0.2h1.6c0.1,0,0.2,0.1,0.2,0.2v5
				C17.6,23,17.5,23,17.4,23z M16,22.7h1.2V18H16V22.7z"/>
		</g>
	</g>
</g>
</svg>
