<svg xmlns="http://www.w3.org/2000/svg" xmlns:xlink="http://www.w3.org/1999/xlink" viewBox="0,0,256,256" width="100px" height="100px" fill-rule="nonzero"><g fill="none" fill-rule="nonzero" stroke="none" stroke-width="1" stroke-linecap="butt" stroke-linejoin="miter" stroke-miterlimit="10" stroke-dasharray="" stroke-dashoffset="0" font-family="none" font-weight="none" font-size="none" text-anchor="none" style="mix-blend-mode: normal"><g transform="scale(2.56,2.56)"><path d="M77,12c-0.55228,0 -1,0.44772 -1,1c0,0.55228 0.44772,1 1,1c0.55228,0 1,-0.44772 1,-1c0,-0.55228 -0.44772,-1 -1,-1z" fill="#f1bc19"></path><path d="M50,13c-20.43454,0 -37,16.56546 -37,37c0,20.43454 16.56546,37 37,37c20.43454,0 37,-16.56546 37,-37c0,-20.43454 -16.56546,-37 -37,-37z" fill="#fcc419"></path><path d="M83,11c-2.20914,0 -4,1.79086 -4,4c0,2.20914 1.79086,4 4,4c2.20914,0 4,-1.79086 4,-4c0,-2.20914 -1.79086,-4 -4,-4z" fill="#f1bc19"></path><path d="M87,22c-1.10457,0 -2,0.89543 -2,2c0,1.10457 0.89543,2 2,2c1.10457,0 2,-0.89543 2,-2c0,-1.10457 -0.89543,-2 -2,-2z" fill="#88ae45"></path><path d="M81,74c-1.10457,0 -2,0.89543 -2,2c0,1.10457 0.89543,2 2,2c1.10457,0 2,-0.89543 2,-2c0,-1.10457 -0.89543,-2 -2,-2zM15,59c-2.20914,0 -4,1.79086 -4,4c0,2.20914 1.79086,4 4,4c2.20914,0 4,-1.79086 4,-4c0,-2.20914 -1.79086,-4 -4,-4z" fill="#fbcd59"></path><path d="M25,85c-1.10457,0 -2,0.89543 -2,2c0,1.10457 0.89543,2 2,2c1.10457,0 2,-0.89543 2,-2c0,-1.10457 -0.89543,-2 -2,-2z" fill="#88ae45"></path><path d="M18.5,49c-1.38071,0 -2.5,1.11929 -2.5,2.5c0,1.38071 1.11929,2.5 2.5,2.5c1.38071,0 2.5,-1.11929 2.5,-2.5c0,-1.38071 -1.11929,-2.5 -2.5,-2.5zM79.5,32c-0.82843,0 -1.5,0.67157 -1.5,1.5c0,0.82843 0.67157,1.5 1.5,1.5c0.82843,0 1.5,-0.67157 1.5,-1.5c0,-0.82843 -0.67157,-1.5 -1.5,-1.5z" fill="#ffffff"></path><g><path d="M29.028,67.3c-2.387,0 -4.328,-1.941 -4.328,-4.328v-25.944c0,-2.387 1.941,-4.328 4.328,-4.328h41.943c2.387,0 4.328,1.941 4.328,4.328v25.943c0,2.387 -1.941,4.328 -4.328,4.328h-41.943z" fill="#f2f0e7"></path><path d="M70.972,33.4c2.001,0 3.628,1.628 3.628,3.628v25.944c0,2.001 -1.628,3.628 -3.628,3.628h-41.944c-2.001,0 -3.628,-1.628 -3.628,-3.628v-25.944c0,-2.001 1.628,-3.628 3.628,-3.628h41.944M70.972,32h-41.944c-2.765,0 -5.028,2.263 -5.028,5.028v25.944c0,2.765 2.263,5.028 5.028,5.028h41.944c2.765,0 5.028,-2.263 5.028,-5.028v-25.944c0,-2.765 -2.263,-5.028 -5.028,-5.028z" fill="#472b29"></path><path d="M50.607,54.247l-19.934,12.306l-0.086,-24.44z" fill="#ceccbe"></path><path d="M70.887,67c2.24,0 4.073,-1.853 4.073,-4.118v-25.406c0,-1.877 -1.267,-3.454 -2.974,-3.945l-22.019,13.839l-21.998,-13.825c-1.684,0.505 -2.929,2.07 -2.929,3.931v25.407c0,2.265 1.833,4.118 4.073,4.118h1.772v-23.745l19.082,11.15l19.082,-11.15v23.744z" fill="#ea5167"></path><g fill="#472b29"><path d="M49.987,47.871c-0.092,0 -0.185,-0.025 -0.266,-0.077l-10.523,-6.608c-0.234,-0.147 -0.304,-0.456 -0.157,-0.689c0.146,-0.233 0.455,-0.303 0.689,-0.157l10.257,6.441l4.518,-2.838c0.234,-0.148 0.542,-0.077 0.689,0.157c0.147,0.234 0.077,0.542 -0.157,0.689l-4.784,3.005c-0.081,0.051 -0.173,0.077 -0.266,0.077zM57.739,43.002c-0.167,0 -0.329,-0.083 -0.424,-0.234c-0.147,-0.234 -0.077,-0.542 0.157,-0.689l4.108,-2.579c0.234,-0.148 0.543,-0.076 0.689,0.157c0.147,0.234 0.077,0.542 -0.157,0.689l-4.107,2.579c-0.083,0.053 -0.175,0.077 -0.266,0.077zM70.923,67.5h-1.838c-0.276,0 -0.5,-0.224 -0.5,-0.5v-5.191c0,-0.276 0.224,-0.5 0.5,-0.5c0.276,0 0.5,0.224 0.5,0.5v4.691h1.338c1.972,0 3.577,-1.623 3.577,-3.618v-25.406c0,-1.525 -0.979,-2.892 -2.407,-3.397l-6.772,4.253c-0.235,0.146 -0.543,0.076 -0.689,-0.157c-0.147,-0.234 -0.076,-0.542 0.157,-0.689l6.969,-4.376c0.121,-0.075 0.269,-0.096 0.404,-0.057c1.966,0.564 3.338,2.383 3.338,4.425v25.407c0,2.544 -2.053,4.615 -4.577,4.615z"></path><path d="M69.085,59.089c-0.276,0 -0.5,-0.224 -0.5,-0.5v-4.271c0,-0.276 0.224,-0.5 0.5,-0.5c0.276,0 0.5,0.224 0.5,0.5v4.271c0,0.277 -0.224,0.5 -0.5,0.5zM30.89,67.5h-1.773c-2.523,0 -4.577,-2.071 -4.577,-4.618v-25.406c0,-2.016 1.352,-3.829 3.288,-4.41c0.136,-0.043 0.287,-0.022 0.41,0.056l2.686,1.687c0.234,0.147 0.304,0.456 0.157,0.689c-0.146,0.234 -0.453,0.305 -0.689,0.157l-2.485,-1.561c-1.403,0.518 -2.366,1.878 -2.366,3.382v25.407c0,1.995 1.604,3.618 3.577,3.618h1.273v-23.681c0,-0.181 0.097,-0.347 0.255,-0.436c0.157,-0.089 0.35,-0.086 0.504,0.008l18.838,11.429l18.838,-11.429c0.155,-0.094 0.348,-0.096 0.504,-0.008c0.158,0.088 0.255,0.255 0.255,0.436v8.608c0,0.276 -0.224,0.5 -0.5,0.5c-0.276,0 -0.5,-0.224 -0.5,-0.5v-7.72l-18.338,11.125c-0.159,0.097 -0.359,0.097 -0.519,0l-18.338,-11.125v23.292c0,0.276 -0.223,0.5 -0.5,0.5z"></path><path d="M36.521,39.414c-0.091,0 -0.183,-0.025 -0.266,-0.077l-3.006,-1.888c-0.233,-0.147 -0.304,-0.456 -0.157,-0.689c0.146,-0.233 0.456,-0.303 0.689,-0.157l3.006,1.888c0.233,0.147 0.304,0.456 0.157,0.689c-0.094,0.151 -0.257,0.234 -0.423,0.234z"></path></g></g></g></g></svg>