<?xml version="1.0" encoding="utf-8"?>
<!-- Generator: Adobe Illustrator 26.2.1, SVG Export Plug-In . SVG Version: 6.00 Build 0)  -->
<svg version="1.1" id="Capa_1" xmlns="http://www.w3.org/2000/svg" xmlns:xlink="http://www.w3.org/1999/xlink" x="0px" y="0px"
	 viewBox="0 0 100 100" style="enable-background:new 0 0 100 100;" xml:space="preserve">
<style type="text/css">
	.st0{fill:#08BDBD;}
	.st1{fill:#88AE45;}
	.st2{fill:#FFFFFF;}
	.st3{fill:#F2F0E7;}
	.st4{fill:#472B29;}
	.st5{fill:#CECCBE;}
	.st6{fill:#EA5167;}
</style>
<g>
	<g transform="scale(2.56,2.56)">
		<path class="st0" d="M30.1,4.7c-0.2,0-0.4,0.2-0.4,0.4s0.2,0.4,0.4,0.4s0.4-0.2,0.4-0.4S30.3,4.7,30.1,4.7z"/>
		<path class="st0" d="M19.5,5.1c-8,0-14.5,6.5-14.5,14.5S11.5,34,19.5,34S34,27.5,34,19.5S27.5,5.1,19.5,5.1z"/>
		<path class="st0" d="M32.4,4.3c-0.9,0-1.6,0.7-1.6,1.6s0.7,1.6,1.6,1.6c0.9,0,1.6-0.7,1.6-1.6S33.3,4.3,32.4,4.3z"/>
		<path class="st1" d="M34,8.6c-0.4,0-0.8,0.3-0.8,0.8s0.3,0.8,0.8,0.8s0.8-0.3,0.8-0.8S34.4,8.6,34,8.6z"/>
		<path class="st0" d="M31.6,28.9c-0.4,0-0.8,0.3-0.8,0.8s0.3,0.8,0.8,0.8s0.8-0.3,0.8-0.8S32.1,28.9,31.6,28.9z M5.9,23
			c-0.9,0-1.6,0.7-1.6,1.6c0,0.9,0.7,1.6,1.6,1.6s1.6-0.7,1.6-1.6C7.4,23.7,6.7,23,5.9,23z"/>
		<path class="st1" d="M9.8,33.2C9.3,33.2,9,33.6,9,34s0.3,0.8,0.8,0.8s0.8-0.3,0.8-0.8S10.2,33.2,9.8,33.2z"/>
		<path class="st2" d="M7.2,19.1c-0.5,0-1,0.4-1,1s0.4,1,1,1s1-0.4,1-1S7.8,19.1,7.2,19.1z M31.1,12.5c-0.3,0-0.6,0.3-0.6,0.6
			s0.3,0.6,0.6,0.6s0.6-0.3,0.6-0.6S31.4,12.5,31.1,12.5z"/>
		<g>
			<path class="st3" d="M11.3,26.3c-0.9,0-1.7-0.8-1.7-1.7V14.5c0-0.9,0.8-1.7,1.7-1.7h16.4c0.9,0,1.7,0.8,1.7,1.7v10.1
				c0,0.9-0.8,1.7-1.7,1.7L11.3,26.3L11.3,26.3z"/>
			<path class="st4" d="M27.7,13c0.8,0,1.4,0.6,1.4,1.4v10.1c0,0.8-0.6,1.4-1.4,1.4H11.3c-0.8,0-1.4-0.6-1.4-1.4V14.5
				c0-0.8,0.6-1.4,1.4-1.4H27.7 M27.7,12.5H11.3c-1.1,0-2,0.9-2,2v10.1c0,1.1,0.9,2,2,2h16.4c1.1,0,2-0.9,2-2V14.5
				C29.7,13.4,28.8,12.5,27.7,12.5z"/>
			<path class="st5" d="M19.8,21.2L12,26l0-9.5L19.8,21.2z"/>
			<path class="st6" d="M27.7,26.2c0.9,0,1.6-0.7,1.6-1.6v-9.9c0-0.7-0.5-1.3-1.2-1.5l-8.6,5.4l-8.6-5.4c-0.7,0.2-1.1,0.8-1.1,1.5
				v9.9c0,0.9,0.7,1.6,1.6,1.6h0.7v-9.3l7.5,4.4l7.5-4.4v9.3L27.7,26.2z"/>
			<g>
				<path class="st4" d="M19.5,18.7c0,0-0.1,0-0.1,0l-4.1-2.6c-0.1-0.1-0.1-0.2-0.1-0.3c0.1-0.1,0.2-0.1,0.3-0.1l4,2.5l1.8-1.1
					c0.1-0.1,0.2,0,0.3,0.1c0.1,0.1,0,0.2-0.1,0.3l-1.9,1.2C19.6,18.7,19.6,18.7,19.5,18.7z M22.6,16.8c-0.1,0-0.1,0-0.2-0.1
					c-0.1-0.1,0-0.2,0.1-0.3l1.6-1c0.1-0.1,0.2,0,0.3,0.1c0.1,0.1,0,0.2-0.1,0.3l-1.6,1C22.6,16.8,22.6,16.8,22.6,16.8z M27.7,26.4
					H27c-0.1,0-0.2-0.1-0.2-0.2v-2c0-0.1,0.1-0.2,0.2-0.2s0.2,0.1,0.2,0.2V26h0.5c0.8,0,1.4-0.6,1.4-1.4v-9.9c0-0.6-0.4-1.1-0.9-1.3
					L25.5,15c-0.1,0.1-0.2,0-0.3-0.1c-0.1-0.1,0-0.2,0.1-0.3l2.7-1.7c0,0,0.1,0,0.2,0c0.8,0.2,1.3,0.9,1.3,1.7v9.9
					C29.5,25.6,28.7,26.4,27.7,26.4z"/>
				<path class="st4" d="M27,23.1c-0.1,0-0.2-0.1-0.2-0.2v-1.7c0-0.1,0.1-0.2,0.2-0.2s0.2,0.1,0.2,0.2v1.7
					C27.2,23,27.1,23.1,27,23.1z M12.1,26.4h-0.7c-1,0-1.8-0.8-1.8-1.8v-9.9c0-0.8,0.5-1.5,1.3-1.7c0.1,0,0.1,0,0.2,0l1,0.7
					c0.1,0.1,0.1,0.2,0.1,0.3C12.1,14,12,14,11.9,13.9l-1-0.6c-0.5,0.2-0.9,0.7-0.9,1.3v9.9c0,0.8,0.6,1.4,1.4,1.4h0.5v-9.3
					c0-0.1,0-0.1,0.1-0.2c0.1,0,0.1,0,0.2,0l7.4,4.5l7.4-4.5c0.1,0,0.1,0,0.2,0c0.1,0,0.1,0.1,0.1,0.2v3.4c0,0.1-0.1,0.2-0.2,0.2
					s-0.2-0.1-0.2-0.2v-3l-7.2,4.3c-0.1,0-0.1,0-0.2,0l-7.2-4.3v9.1C12.3,26.3,12.2,26.4,12.1,26.4z"/>
				<path class="st4" d="M14.3,15.4c0,0-0.1,0-0.1,0L13,14.6c-0.1-0.1-0.1-0.2-0.1-0.3c0.1-0.1,0.2-0.1,0.3-0.1l1.2,0.7
					c0.1,0.1,0.1,0.2,0.1,0.3C14.4,15.4,14.3,15.4,14.3,15.4z"/>
			</g>
		</g>
	</g>
</g>
</svg>
