<?xml version="1.0" encoding="utf-8"?>
<!-- Generator: Adobe Illustrator 26.2.1, SVG Export Plug-In . SVG Version: 6.00 Build 0)  -->
<svg version="1.1" id="Capa_1" xmlns="http://www.w3.org/2000/svg" xmlns:xlink="http://www.w3.org/1999/xlink" x="0px" y="0px"
	 viewBox="0 0 100 100" style="enable-background:new 0 0 100 100;" xml:space="preserve">
<style type="text/css">
	.st0{fill:#EE3E54;}
	.st1{fill:#08BDBD;}
	.st2{fill:#FFFFFF;}
	.st3{fill:#3231C7;}
	.st4{fill:#7228AD;}
	.st5{fill:#B11E93;}
	.st6{fill:#DB1A58;}
	.st7{fill:#E4273E;}
	.st8{fill:#F47C22;}
	.st9{fill:#EF9922;}
	.st10{fill:#472B29;}
</style>
<g>
	<g transform="scale(2.56,2.56)">
		<circle class="st0" cx="5.1" cy="11.3" r="0.8"/>
		<circle class="st1" cx="30.1" cy="5.1" r="0.4"/>
		<circle class="st1" cx="19.5" cy="19.5" r="14.5"/>
		<circle class="st1" cx="32.4" cy="5.9" r="1.6"/>
		<circle class="st0" cx="34" cy="9.4" r="0.8"/>
		<circle class="st1" cx="31.6" cy="29.7" r="0.8"/>
		<circle class="st1" cx="5.9" cy="24.6" r="1.6"/>
		<circle class="st0" cx="9.8" cy="34" r="0.8"/>
		<circle class="st2" cx="7.2" cy="20.9" r="1"/>
		<circle class="st1" cx="8.2" cy="26.2" r="0.4"/>
		<circle class="st2" cx="31.2" cy="13.3" r="0.4"/>
		<path class="st3" d="M28.2,13.2v12.7c0,1.3-1.1,2.3-2.3,2.3H13.2c-1.3,0-2.3-1.1-2.3-2.3V13.2c0-1.3,1.1-2.3,2.3-2.3h12.7
			C27.2,10.8,28.2,11.9,28.2,13.2z"/>
		<path class="st4" d="M28.2,18.8v7.1c0,1.3-1.1,2.3-2.3,2.3H13.2c-1.3,0-2.3-1.1-2.3-2.3V13.2c0-1.3,1.1-2.3,2.3-2.3h7.1
			C23.7,12.6,26.4,15.4,28.2,18.8z"/>
		<path class="st5" d="M27.3,27.7C27.3,27.7,27.3,27.7,27.3,27.7c-0.4,0.3-0.9,0.5-1.4,0.5H13.2c-1.3,0-2.3-1.1-2.3-2.3V13.2
			c0-0.5,0.2-1,0.5-1.4c0,0,0,0,0,0C20.2,11.7,27.3,18.9,27.3,27.7z"/>
		<path class="st6" d="M24.2,27.7c0,0.2,0,0.3,0,0.5h-11c-1.3,0-2.3-1.1-2.3-2.3v-11c0.2,0,0.3,0,0.5,0
			C18.4,14.8,24.2,20.6,24.2,27.7z"/>
		<path class="st7" d="M21.1,27.7c0,0.2,0,0.3,0,0.5h-7.9c-1.3,0-2.3-1.1-2.3-2.3V18c0.2,0,0.3,0,0.5,0C16.7,18,21.1,22.3,21.1,27.7
			z"/>
		<path class="st8" d="M18.4,27.7c0,0.2,0,0.3,0,0.5h-5.2c-1.3,0-2.3-1.1-2.3-2.3v-5.2c0.2,0,0.3,0,0.5,0
			C15.2,20.7,18.4,23.9,18.4,27.7z"/>
		<path class="st9" d="M16,27.7c0,0.2,0,0.3,0,0.5h-2.8c-1.3,0-2.3-1.1-2.3-2.3v-2.8c0.2,0,0.3,0,0.5,0C13.9,23,16,25.1,16,27.7z"/>
		<path class="st10" d="M25.9,28.5H13.2c-1.4,0-2.6-1.2-2.6-2.6V13.2c0-1.4,1.2-2.6,2.6-2.6h12.7c1.4,0,2.6,1.2,2.6,2.6v12.7
			C28.5,27.3,27.3,28.5,25.9,28.5z M13.2,11.1c-1.1,0-2.1,0.9-2.1,2.1v12.7c0,1.1,0.9,2.1,2.1,2.1h12.7C27,28,28,27,28,25.9V13.2
			c0-1.1-0.9-2.1-2.1-2.1L13.2,11.1z"/>
		<g>
			<path class="st2" d="M19.5,25.6c-1.6,0-2.1,0-2.7,0c-0.5,0-1-0.1-1.4-0.3c-0.4-0.2-0.7-0.4-1-0.6c-0.3-0.3-0.5-0.6-0.6-1
				c-0.2-0.4-0.2-0.8-0.3-1.4c0-0.6,0-1.2,0-2.7c0-1.5,0-2.1,0-2.7c0-0.5,0.1-1,0.3-1.4c0.2-0.4,0.4-0.7,0.6-1
				c0.3-0.3,0.6-0.5,1-0.6c0.4-0.2,0.8-0.2,1.4-0.3c0.6,0,1.2,0,2.7,0c1.5,0,2.1,0,2.7,0c0.5,0,1,0.1,1.4,0.3c0.4,0.2,0.7,0.4,1,0.6
				c0.3,0.3,0.5,0.6,0.7,1c0.2,0.4,0.2,0.8,0.3,1.4c0,0.6,0,1.2,0,2.7c0,1.5,0,2.1,0,2.7c0,0.5-0.1,1-0.3,1.4
				c-0.2,0.4-0.4,0.7-0.7,1c-0.3,0.3-0.6,0.5-1,0.6c-0.4,0.2-0.8,0.2-1.4,0.3C21.7,25.6,21.1,25.6,19.5,25.6z M19,14.6
				c-1.1,0-1.7,0-2.2,0c-0.5,0-0.8,0.1-1,0.2c-0.2,0.1-0.4,0.2-0.6,0.4c-0.2,0.2-0.3,0.4-0.4,0.6c-0.1,0.2-0.2,0.5-0.2,1
				c0,0.6,0,1.1,0,2.7c0,1.6,0,2.1,0,2.7c0,0.5,0.1,0.8,0.2,1c0.1,0.2,0.2,0.4,0.4,0.6c0.2,0.2,0.4,0.3,0.6,0.4
				c0.2,0.1,0.5,0.2,1,0.2c0.6,0,1.2,0,2.7,0c1.5,0,2.1,0,2.7,0c0.5,0,0.8-0.1,1-0.2c0.2-0.1,0.4-0.2,0.6-0.4
				c0.2-0.2,0.3-0.4,0.4-0.6c0.1-0.2,0.2-0.5,0.2-1c0-0.6,0-1.2,0-2.7c0-1.5,0-2.1,0-2.7c0-0.5-0.1-0.8-0.2-1
				c-0.1-0.2-0.2-0.4-0.4-0.6c-0.2-0.2-0.4-0.3-0.6-0.4c-0.2-0.1-0.5-0.2-1-0.2c-0.6,0-1.2,0-2.7,0L19,14.6L19,14.6z"/>
			<path class="st10" d="M19.5,13.6c1.5,0,2.1,0,2.7,0c0.5,0,0.9,0.1,1.3,0.3c0.4,0.1,0.7,0.3,1,0.6c0.3,0.3,0.5,0.6,0.6,1
				c0.2,0.4,0.2,0.8,0.3,1.3c0,0.6,0,1.2,0,2.7c0,1.5,0,2.1,0,2.7c0,0.5-0.1,0.9-0.3,1.3c-0.2,0.4-0.3,0.7-0.6,1
				c-0.3,0.3-0.6,0.5-1,0.6c-0.4,0.2-0.8,0.2-1.3,0.3c-0.6,0-1.2,0-2.7,0c-1.6,0-2.1,0-2.7,0c-0.5,0-0.9-0.1-1.3-0.3
				c-0.4-0.1-0.7-0.3-1-0.6c-0.3-0.3-0.5-0.6-0.6-1c-0.1-0.4-0.2-0.8-0.3-1.3c0-0.6,0-1.2,0-2.7c0-1.5,0-2.1,0-2.7
				c0-0.5,0.1-0.9,0.3-1.3c0.1-0.4,0.3-0.7,0.6-1c0.3-0.3,0.6-0.5,1-0.6c0.4-0.2,0.8-0.2,1.3-0.3C17.4,13.6,18,13.6,19.5,13.6
				 M19.5,24.5c1.5,0,2.1,0,2.7,0c0.6,0,0.9-0.1,1-0.2c0.3-0.1,0.4-0.2,0.6-0.4c0.2-0.2,0.3-0.4,0.4-0.6c0.1-0.2,0.2-0.5,0.2-1
				c0-0.6,0-1.2,0-2.7c0-1.5,0-2.1,0-2.7c0-0.5-0.1-0.8-0.2-1c-0.1-0.3-0.2-0.4-0.4-0.6c-0.2-0.2-0.4-0.3-0.6-0.4
				c-0.2-0.1-0.5-0.2-1-0.2c-0.6,0-1.2,0-2.7,0H19c-1.1,0-1.7,0-2.2,0c-0.5,0-0.8,0.1-1,0.2c-0.3,0.1-0.4,0.2-0.6,0.4
				c-0.2,0.2-0.3,0.4-0.4,0.6c-0.1,0.2-0.2,0.5-0.2,1c0,0.6,0,1.1,0,2.7c0,1.6,0,2.1,0,2.7c0,0.5,0.1,0.8,0.2,1
				c0.1,0.3,0.2,0.4,0.4,0.6c0.2,0.2,0.4,0.3,0.6,0.4c0.2,0.1,0.5,0.2,1,0.2C17.4,24.5,18,24.5,19.5,24.5 M19.5,13.4
				c-1.6,0-2.1,0-2.7,0c-0.6,0-1,0.1-1.4,0.3c-0.4,0.2-0.7,0.4-1,0.7c-0.3,0.3-0.5,0.6-0.7,1c-0.2,0.4-0.2,0.8-0.3,1.4
				c0,0.6,0,1.2,0,2.7c0,1.6,0,2.1,0,2.7c0,0.6,0.1,1,0.3,1.4c0.2,0.4,0.4,0.7,0.7,1c0.3,0.3,0.6,0.5,1,0.7c0.4,0.2,0.8,0.2,1.4,0.3
				c0.6,0,1.2,0,2.7,0c1.5,0,2.1,0,2.7,0c0.6,0,1-0.1,1.4-0.3c0.4-0.2,0.7-0.4,1-0.7c0.3-0.3,0.5-0.6,0.7-1c0.2-0.4,0.2-0.9,0.3-1.4
				c0-0.6,0-1.2,0-2.7c0-1.6,0-2.1,0-2.7c0-0.5-0.1-1-0.3-1.4c-0.2-0.4-0.4-0.7-0.7-1c-0.3-0.3-0.6-0.5-1-0.7
				c-0.4-0.2-0.8-0.2-1.4-0.3C21.7,13.4,21.1,13.4,19.5,13.4z M19.5,24.3c-1.5,0-2.1,0-2.7,0c-0.5,0-0.8-0.1-1-0.2
				c-0.2-0.1-0.4-0.2-0.6-0.4c-0.2-0.2-0.3-0.3-0.4-0.6c-0.1-0.2-0.2-0.5-0.2-1c0-0.6,0-1.1,0-2.7c0-1.6,0-2.1,0-2.7
				c0-0.5,0.1-0.8,0.2-1c0.1-0.2,0.2-0.4,0.4-0.6c0.2-0.2,0.3-0.3,0.6-0.4c0.2-0.1,0.5-0.2,1-0.2c0.5,0,1.1,0,2.2,0h0.5
				c1.5,0,2.1,0,2.7,0c0.5,0,0.8,0.1,1,0.2c0.2,0.1,0.4,0.2,0.6,0.4c0.2,0.2,0.3,0.3,0.4,0.6c0.1,0.2,0.2,0.5,0.2,1
				c0,0.6,0,1.2,0,2.7c0,1.5,0,2.1,0,2.7c0,0.5-0.1,0.8-0.2,1c-0.1,0.2-0.2,0.4-0.4,0.6c-0.2,0.2-0.3,0.3-0.6,0.4
				c-0.2,0.1-0.4,0.2-1,0.2C21.6,24.3,21,24.3,19.5,24.3z"/>
		</g>
		<path class="st2" d="M22.9,16.9c-0.4,0-0.7-0.3-0.7-0.7s0.3-0.7,0.7-0.7h0c0.2,0,0.4,0.1,0.5,0.2c0.1,0.1,0.2,0.3,0.2,0.5
			C23.5,16.6,23.2,16.9,22.9,16.9z"/>
		<path class="st10" d="M22.9,15.6c0.3,0,0.6,0.3,0.6,0.6s-0.3,0.6-0.6,0.6s-0.6-0.3-0.6-0.6S22.5,15.6,22.9,15.6L22.9,15.6
			 M22.9,15.4L22.9,15.4c-0.4,0-0.8,0.4-0.8,0.8c0,0.4,0.4,0.8,0.8,0.8s0.8-0.4,0.8-0.8C23.6,15.8,23.3,15.4,22.9,15.4z"/>
		<path class="st2" d="M19.5,16.2c-1.8,0-3.3,1.5-3.3,3.3s1.5,3.3,3.3,3.3s3.3-1.5,3.3-3.3S21.4,16.2,19.5,16.2z M19.5,17.4
			c1.2,0,2.1,1,2.1,2.1c0,1.2-1,2.1-2.1,2.1c-1.2,0-2.1-1-2.1-2.1C17.4,18.3,18.3,17.4,19.5,17.4z"/>
		<path class="st10" d="M19.5,23c-1.9,0-3.4-1.5-3.4-3.4c0-1.9,1.5-3.4,3.4-3.4c1.9,0,3.4,1.5,3.4,3.4C22.9,21.4,21.4,23,19.5,23z
			 M19.5,16.3c-1.8,0-3.2,1.4-3.2,3.2c0,1.8,1.4,3.2,3.2,3.2c1.8,0,3.2-1.4,3.2-3.2C22.7,17.8,21.3,16.3,19.5,16.3z M19.5,21.8
			c-1.2,0-2.2-1-2.2-2.2c0-1.2,1-2.2,2.2-2.2s2.2,1,2.2,2.2C21.8,20.8,20.8,21.8,19.5,21.8z M19.5,17.5c-1.1,0-2.1,0.9-2.1,2.1
			c0,1.1,0.9,2.1,2.1,2.1s2.1-0.9,2.1-2.1C21.6,18.4,20.7,17.5,19.5,17.5z"/>
	</g>
</g>
</svg>
