<?xml version="1.0" encoding="utf-8"?>
<!-- Generator: Adobe Illustrator 26.2.1, SVG Export Plug-In . SVG Version: 6.00 Build 0)  -->
<svg version="1.1" id="Capa_1" xmlns="http://www.w3.org/2000/svg" xmlns:xlink="http://www.w3.org/1999/xlink" x="0px" y="0px"
	 viewBox="0 0 90 90" style="enable-background:new 0 0 90 90;" xml:space="preserve">
<style type="text/css">
	.st0{fill:#FF0000;}
	.st1{fill:#039B98;}
</style>
<g>
	<path class="st0" d="M-61.2,59.1c0,8-5.2,13.9-15.2,13.9h-17.4V45.2h16.5c3.4,0,4.8-2.2,4.8-4.7c0-2.5-1.4-4.7-4.8-4.7h-16.5v-8.3
		h16.3c8.7,0,13.9,5.9,13.9,13c0,3.3-1.6,6.3-4.1,8.5C-63.8,50.9-61.2,54.3-61.2,59.1z M-70.2,59.1c0-3.3-2.1-5.7-6.2-5.7h-8.7v11.3
		h8.7C-72.3,64.7-70.2,62.3-70.2,59.1z"/>
	<path class="st0" d="M-43.5,48.8l-4.6,13.1l-12.4-34.5h9.6L-43.5,48.8z M-18.7,27.5L-35.2,73H-44v-0.1l15.7-45.5H-18.7z"/>
</g>
<g>
	<path class="st1" d="M18.4,31.5h-7.7v-6.5h7.7V31.5z M18.4,52.7l-7.7,7.6V37.1h7.7V52.7z M35,58.1v7.3H14l7.5-7.3H35z"/>
	<path class="st1" d="M79.3,24.6v40.8h-7.7V43.6l-12,12.8h-0.5L47.3,43.6v21.9h-7.7V24.6h0.5L59.4,46l19.4-21.4H79.3z"/>
</g>
<text transform="matrix(1 0 0 1 113.6296 -21.7742)" class="st0" style="font-family:'MADEEvolveSansEVO-Bold'; font-size:12px;">LM</text>
</svg>
