<?xml version="1.0" encoding="utf-8"?>
<!-- Generator: Adobe Illustrator 26.2.1, SVG Export Plug-In . SVG Version: 6.00 Build 0)  -->
<svg version="1.1" id="Capa_1" xmlns="http://www.w3.org/2000/svg" xmlns:xlink="http://www.w3.org/1999/xlink" x="0px" y="0px"
	 viewBox="0 0 100 100" style="enable-background:new 0 0 100 100;" xml:space="preserve">
<style type="text/css">
	.st0{fill:#FD9A00;}
	.st1{fill:none;stroke:#000000;stroke-miterlimit:10;}
	.st2{fill:#FF9C00;}
	.st3{fill:#5E5E5E;}
</style>
<g>
</g>
<g>
	<g>
		<g>
			<g>
				<path class="st2" d="M28.5,67.7c2.8,4.8,7,7.2,12.8,7.2c3.6,0,6.4-0.8,8.5-2.5c2.1-1.7,3.1-4,3.1-7c0-2.6-0.6-4.8-1.7-6.9
					c-1.2-2-2.7-3.9-4.7-5.6c-2-1.7-4.5-3.6-7.8-5.7c-3.9-2.6-7-4.9-9.3-6.8c-2.3-1.9-4.2-4.2-5.7-6.7c-1.5-2.6-2.2-5.5-2.2-8.9
					c0-4,1.1-7.4,3.3-10.2c2.2-2.8,5.1-4.8,8.7-6.1c3.6-1.3,7.6-2,12-2c3.7,0,6.7,0.3,9,1c2.3,0.7,4.5,1.6,6.7,2.8
					c0.9,0.5,1.6,0.9,2,1.1c0.4,0.2,0.9,0.3,1.3,0.3c0.6,0,1.1-0.3,1.4-1c0.3-0.7,0.6-1.8,0.8-3.2h2.2c-0.3,4.6-0.5,12.5-0.5,23.6
					h-2.2c-0.3-3.7-1.1-7.2-2.5-10.6c-1.4-3.4-3.4-6.1-5.8-8.2s-5.3-3.2-8.5-3.2c-2.9,0-5.3,0.8-7.1,2.4s-2.7,3.8-2.7,6.6
					c0,2.3,0.5,4.3,1.6,6c1.1,1.7,2.6,3.2,4.5,4.7c1.9,1.5,5.6,4.1,10.9,7.8c3.6,2.5,6.4,4.7,8.5,6.5c2.1,1.9,3.8,4.1,5.2,6.6
					c1.3,2.5,2,5.4,2,8.7c0,4.2-1.2,7.7-3.5,10.6c-2.4,2.9-5.5,5-9.5,6.5c-4,1.4-8.4,2.1-13.3,2.1c-4,0-7.3-0.3-9.9-1
					c-2.6-0.6-5-1.5-7.3-2.6c-1.5-0.9-2.5-1.4-3.3-1.4c-0.6,0-1.1,0.3-1.4,1c-0.3,0.7-0.6,1.7-0.8,3.3h-2.2
					c0.3-4.9,0.4-14.3,0.4-28.1h2.2C24.1,56.7,25.7,62.9,28.5,67.7z"/>
			</g>
			<g>
				<path class="st2" d="M80.7,45.1c1.6,0,3.1,0.4,4.4,1.3c1.3,0.9,2.3,2.3,3,4.1c0.7,1.8,1.1,4.1,1.1,6.7c0,5.1-1,8.8-3.1,11
					s-4.8,3.3-8.2,3.3c-1.9,0-3.4-0.3-4.5-0.9v4c0,1.5,0.3,2.5,1,3.1c0.7,0.6,1.7,0.9,3.1,0.9v1c-0.5,0-1.7-0.1-3.5-0.1
					c-1.8-0.1-3.6-0.1-5.4-0.1c-1.3,0-2.7,0-4,0.1c-1.4,0.1-2.3,0.1-2.6,0.1v-1c0.7,0,1.2-0.1,1.6-0.3c0.4-0.2,0.7-0.6,0.9-1.1
					c0.2-0.5,0.3-1.2,0.3-2.1V51.1c0-1.5-0.2-2.6-0.6-3.3c-0.4-0.7-1.1-1-2.1-1v-1c1,0.1,2,0.1,3,0.1c3.4,0,6.2-0.2,8.4-0.7v3.4
					C74.9,46.3,77.3,45.1,80.7,45.1z M75.1,70.2c1.8,0,3-1,3.8-2.9c0.8-1.9,1.2-4.9,1.2-8.9c0-4-0.3-6.8-0.9-8.4
					c-0.6-1.6-1.4-2.4-2.4-2.4c-0.6,0-1.2,0.2-1.7,0.4c-0.5,0.3-1,0.7-1.3,1.2c-0.3,0.5-0.5,1.1-0.5,1.8v18.6
					C73.8,70,74.4,70.2,75.1,70.2z"/>
			</g>
			<g>
				
					<rect x="47" y="51.4" transform="matrix(-1.836970e-16 1 -1 -1.836970e-16 143.8546 40.2546)" class="st2" width="9.7" height="81.4"/>
				<g>
					<path d="M14.8,93.4c0.2,0,0.4,0,0.5-0.1c0.1-0.1,0.3-0.2,0.5-0.4l0.4,0.4c-0.4,0.4-0.8,0.7-1.4,0.7c-0.5,0-1-0.2-1.3-0.6
						c-0.4-0.4-0.5-0.8-0.5-1.4c0-0.6,0.2-1,0.5-1.4c0.4-0.4,0.8-0.6,1.4-0.6c0.5,0,1,0.2,1.4,0.7l-0.4,0.4
						c-0.2-0.2-0.3-0.3-0.5-0.4c-0.2-0.1-0.3-0.1-0.5-0.1c-0.4,0-0.7,0.1-0.9,0.4c-0.2,0.3-0.4,0.6-0.4,1c0,0.4,0.1,0.7,0.4,1
						C14.2,93.3,14.5,93.4,14.8,93.4z"/>
					<path d="M21.2,91.4c0,0.6-0.3,1-0.8,1.2l0.9,1.4h-0.8l-0.8-1.3H19V94h-0.6v-3.8h1.3c0.5,0,0.9,0.1,1.2,0.3
						C21.1,90.7,21.2,91,21.2,91.4z M20.4,92c0.1-0.1,0.2-0.3,0.2-0.5c0-0.2-0.1-0.4-0.2-0.5c-0.1-0.1-0.3-0.1-0.7-0.1H19v1.4h0.7
						C20.1,92.1,20.3,92.1,20.4,92z"/>
					<path d="M26.1,90.2v0.6h-1.9v1h1.7v0.6h-1.7v1h1.9V94h-2.5v-3.8H26.1z"/>
					<path d="M28.9,93.1L28.5,94h-0.6l1.6-3.8h0.6l1.6,3.8H31l-0.4-0.9H28.9z M30.4,92.5l-0.6-1.6l-0.6,1.6H30.4z"/>
					<path d="M34.7,90.8V94h-0.6v-3.2H33v-0.6h2.7v0.6H34.7z"/>
					<path d="M37.9,90.2h0.6V94h-0.6V90.2z"/>
					<path d="M42.6,94H42l-1.4-3.8h0.7l1.1,2.9l1.1-2.9H44L42.6,94z"/>
					<path d="M48.5,90.2v0.6h-1.9v1h1.7v0.6h-1.7v1h1.9V94h-2.5v-3.8H48.5z"/>
					<path d="M56.4,90.7c0.3,0.3,0.5,0.8,0.5,1.4c0,0.6-0.2,1.1-0.5,1.4c-0.3,0.3-0.8,0.5-1.5,0.5h-1.2v-3.8H55
						C55.6,90.2,56.1,90.3,56.4,90.7z M56.3,92.1c0-0.9-0.5-1.3-1.4-1.3h-0.6v2.6H55c0.4,0,0.8-0.1,1-0.3
						C56.2,92.8,56.3,92.5,56.3,92.1z"/>
					<path d="M61.7,90.2v0.6h-1.9v1h1.7v0.6h-1.7v1h1.9V94h-2.5v-3.8H61.7z"/>
					<path d="M65.1,90.7c-0.2,0-0.3,0-0.4,0.1c-0.1,0.1-0.2,0.2-0.2,0.3c0,0.2,0.1,0.3,0.2,0.4c0.1,0.1,0.3,0.2,0.7,0.3
						c0.4,0.1,0.6,0.2,0.8,0.4c0.2,0.2,0.3,0.4,0.3,0.8c0,0.3-0.1,0.6-0.3,0.8c-0.2,0.2-0.5,0.3-0.9,0.3c-0.6,0-1-0.2-1.5-0.6
						l0.4-0.5c0.4,0.3,0.7,0.5,1.1,0.5c0.2,0,0.3,0,0.5-0.1c0.1-0.1,0.2-0.2,0.2-0.4c0-0.1-0.1-0.3-0.2-0.3
						c-0.1-0.1-0.3-0.2-0.5-0.2c-0.3-0.1-0.5-0.1-0.6-0.2c-0.1-0.1-0.3-0.1-0.4-0.2c-0.2-0.2-0.3-0.4-0.3-0.8c0-0.4,0.1-0.6,0.4-0.8
						c0.2-0.2,0.5-0.3,0.9-0.3c0.2,0,0.4,0,0.7,0.1c0.2,0.1,0.4,0.2,0.6,0.3L66,91c-0.1-0.1-0.2-0.2-0.4-0.3
						C65.4,90.7,65.3,90.7,65.1,90.7z"/>
					<path d="M68.7,90.2h0.6V94h-0.6V90.2z"/>
					<path d="M74.2,92.1h0.6v1.3C74.5,93.8,74,94,73.4,94c-0.5,0-1-0.2-1.3-0.6c-0.4-0.4-0.5-0.8-0.5-1.4c0-0.6,0.2-1,0.5-1.4
						c0.4-0.4,0.8-0.6,1.3-0.6c0.5,0,0.9,0.2,1.3,0.5L74.4,91c-0.1-0.1-0.3-0.2-0.4-0.3c-0.1-0.1-0.3-0.1-0.5-0.1
						c-0.4,0-0.7,0.1-0.9,0.4c-0.2,0.3-0.4,0.6-0.4,1s0.1,0.7,0.4,1c0.2,0.2,0.5,0.4,0.9,0.4c0.3,0,0.6-0.1,0.8-0.2V92.1z"/>
					<path d="M79.8,90.2h0.6V94h-0.6l-2-2.8V94h-0.6v-3.8h0.6l2,2.9V90.2z"/>
					<path d="M85.3,90.2v0.6h-1.9v1h1.7v0.6h-1.7v1h1.9V94h-2.5v-3.8H85.3z"/>
					<path d="M90.5,91.4c0,0.6-0.3,1-0.8,1.2l0.9,1.4h-0.8L89,92.7h-0.8V94h-0.6v-3.8H89c0.5,0,0.9,0.1,1.2,0.3
						C90.4,90.7,90.5,91,90.5,91.4z M89.7,92c0.1-0.1,0.2-0.3,0.2-0.5c0-0.2-0.1-0.4-0.2-0.5c-0.1-0.1-0.3-0.1-0.7-0.1h-0.8v1.4H89
						C89.3,92.1,89.6,92.1,89.7,92z"/>
				</g>
			</g>
		</g>
	</g>
	<g id="Vector_Smart_Object1.psd_00000106137908829620200880000009156628284423801275_">
		
			<image style="overflow:visible;" width="1034" height="481" id="Vector_Smart_Object_00000062881230902817744810000000136953251218482062_" xlink:href="8ABC321B0157C389.png"  transform="matrix(8.108811e-02 0 0 8.108811e-02 6.0214 45.8702)">
		</image>
	</g>
	<g id="Vector_Smart_Object1.psd_00000076576204659871313910000011545071355361453487_">
		
			<image style="overflow:visible;" width="1034" height="481" id="Vector_Smart_Object_00000070811180975849222600000011000409990491063732_" xlink:href="8ABC321B0157C38B.png"  transform="matrix(-8.108811e-02 0 0 -8.108811e-02 93.9786 42.1109)">
		</image>
	</g>
	<g>
		<g>
			<path class="st3" d="M11.6,6.5c0,0.7,0,1.4,0,2.1c0,0.1,0,0.2,0,0.3c-0.3,0-0.5,0-0.7,0c-0.2,0-0.4,0-0.6,0C10.1,8.8,10,8.9,10,9
				c0,0.2,0,0.5,0,0.7c-0.7,0-1.4,0-2.1,0c0-0.6,0-1.3,0-1.9c0.2,0,0.5,0,0.7,0c0.1,0,0.1-0.1,0.1-0.1c0-0.4,0-0.8,0-1.3
				C9.7,6.5,10.7,6.5,11.6,6.5z M10.2,6.6c-0.4,0-0.7,0-1.1,0c-0.1,0-0.2,0-0.2,0.2c0,0.3,0,0.6,0,0.9c0,0.1,0.1,0.2,0.2,0.2
				c0.3,0,0.5,0,0.8,0C10,7.8,10,7.9,10,8c0,0.2,0,0.3,0,0.5c0,0.1,0.1,0.2,0.2,0.2c0.4,0,0.7,0,1.1,0c0.1,0,0.2,0,0.2-0.2
				c0-0.6,0-1.2,0-1.8c0-0.1,0-0.2-0.2-0.2C10.9,6.6,10.6,6.6,10.2,6.6z M9.9,9.6c0-0.2,0-0.5,0-0.7c0,0-0.1-0.1-0.1-0.1
				c-0.2,0-0.4,0-0.6,0c-0.4,0-0.3,0-0.3-0.3c0-0.5,0-0.5-0.5-0.5C8.1,8,8.1,8,8.1,8.1c0,0.3,0,0.7,0,1c0,0.4,0,0.4,0.4,0.4
				C9,9.6,9.4,9.6,9.9,9.6z M9.4,8.7c0.1,0,0.2,0,0.3,0c0.1,0,0.2-0.1,0.2-0.2c0-0.1,0-0.3,0-0.4C9.9,8,9.9,8,9.8,8
				C9.6,8,9.3,8,9.1,8C9,8,8.9,8,8.9,8.2C8.9,8.7,8.9,8.7,9.4,8.7z"/>
			<path class="st3" d="M8.3,30.2c0-0.1,0-0.2,0-0.2c0.2-0.4,0.3-0.9,0.5-1.3c0-0.1,0.1-0.1,0.1-0.2c0.2-0.1,0.5-0.2,0.7-0.4
				c0.1,0,0.1,0,0.2,0c0.2,0.2,0.5,0.5,0.7,0.7c0,0,0.1,0.1,0,0.2c-0.1,0.2-0.2,0.5-0.3,0.7c0,0.1-0.1,0.1-0.1,0.1
				c-0.5,0.2-1,0.4-1.4,0.6c-0.1,0-0.1,0-0.2,0c0,0,0,0,0-0.1c0.3-0.3,0.6-0.6,0.9-0.8c0.1-0.1,0.1-0.2,0.1-0.2
				c0-0.1-0.1-0.2-0.2-0.2c-0.1,0-0.2,0.1-0.2,0.1c-0.1,0.1-0.1,0.2-0.2,0.2C8.8,29.8,8.6,30,8.3,30.2z"/>
			<path class="st3" d="M8.3,21.2c1,0.5,2,1,3,1.5c-0.4,0.1-0.8,0.2-1.2,0.3c-0.1,0-0.2,0.1-0.2,0.2c-0.2,0.3-0.3,0.7-0.5,1.1
				C9,23.3,8.7,22.3,8.3,21.2z"/>
			<path class="st3" d="M11.2,40.5c0,0.3,0,0.5,0,0.8c-0.1,0-0.3,0-0.4,0c0,0,0,0,0,0c0-0.3,0-0.3-0.4-0.3C10,41,10,41,10,41.4
				c0,0.4,0,0.8,0,1.2c0,0.3,0,0.3,0.3,0.4c0,0.1,0,0.3,0,0.4c-0.3,0-0.7,0-1,0c0-0.1,0-0.3,0-0.4c0.3-0.1,0.3-0.1,0.3-0.4
				c0-0.5,0-1,0-1.4c0-0.1,0-0.2-0.2-0.2c-0.1,0-0.1,0-0.2,0c-0.3,0-0.3,0-0.4,0.3c-0.1,0-0.3,0-0.4,0c0-0.3,0-0.5,0-0.8
				C9.3,40.5,10.2,40.5,11.2,40.5z"/>
			<path class="st3" d="M10.1,35.5c-0.2-0.2-0.4-0.3-0.6-0.5c0,0,0.1-0.1,0.1-0.2c0.4-0.5,0.8-1,1.3-1.3c0.1,0,0.1-0.1,0.2-0.1
				c0.1,0,0.2,0,0.2,0c0,0,0.1,0.1,0.1,0.2c0,0,0,0.1,0,0.1C11.1,34.4,10.6,35,10.1,35.5z"/>
			<path class="st3" d="M10.5,14.9c-0.7,0.7-1.4,1.4-2.1,2c-0.1-0.1-0.2-0.2-0.3-0.3c0.7-0.7,1.4-1.4,2.1-2
				C10.3,14.7,10.4,14.8,10.5,14.9z"/>
			<path class="st3" d="M8.2,36.4c0.2-0.2,0.3-0.5,0.5-0.7c0.1-0.2,0.3-0.3,0.6-0.4c0.3,0,0.5,0.1,0.5,0.4c0,0.4-0.2,0.6-0.5,0.8
				C8.8,36.6,8.5,36.6,8.2,36.4z"/>
			<path class="st3" d="M10.1,27.9c0.1-0.1,0.3-0.3,0.4-0.4c0.3,0.2,0.5,0.5,0.8,0.7c-0.2,0.2-0.3,0.3-0.5,0.5
				C10.6,28.4,10.3,28.2,10.1,27.9z"/>
			<path class="st3" d="M8.9,15c0-0.4-0.1-0.7-0.5-0.8c0,0,0,0,0-0.1c0.1,0,0.2,0,0.3,0c0.1,0,0.2,0,0.3-0.2c0-0.1,0.1-0.2,0.2-0.3
				c-0.1,0.4,0.1,0.7,0.5,0.8C9.3,14.5,9.1,14.6,8.9,15z"/>
			<path class="st3" d="M10.6,21.4c0.2,0,0.3,0,0.5,0c0,0,0.1,0,0.1,0.1c0,0-0.1,0.1-0.1,0.1c-0.2,0-0.3,0-0.5,0c0,0.2,0,0.4,0,0.5
				c0,0,0,0.1-0.1,0.1c0,0-0.1-0.1-0.1-0.1c0-0.1,0-0.3,0-0.4c0-0.1,0-0.2-0.2-0.2c-0.1,0-0.2,0-0.4,0c0,0-0.1,0-0.1-0.1
				c0,0,0.1-0.1,0.1-0.1c0.1,0,0.2,0,0.3,0c0.1,0,0.2,0,0.2-0.2c0-0.1,0-0.2,0-0.3c0,0,0-0.1,0.1-0.1c0,0,0.1,0.1,0.1,0.1
				C10.6,21.1,10.6,21.2,10.6,21.4z"/>
			<path class="st3" d="M10.2,14c0.4-0.1,0.4-0.1,0.6-0.3c0,0.3,0,0.4,0.3,0.5c-0.3,0-0.4,0.1-0.5,0.3C10.6,14.2,10.5,14.1,10.2,14z
				"/>
			<path class="st3" d="M10.7,15.1c0.1,0,0.2-0.1,0.2-0.2c0.1,0.1,0.1,0.2,0.2,0.3c-0.1,0-0.2,0.1-0.3,0.2
				C10.8,15.3,10.8,15.2,10.7,15.1z"/>
			<path class="st3" d="M10.3,7.7c-0.1-0.1-0.1-0.1,0.2-0.3c0.1-0.1,0.2-0.2,0.3-0.3c0-0.1-0.1-0.1-0.1-0.2c0.1,0,0.3,0,0.4,0
				c0,0.1,0,0.3,0,0.4C11,7.3,11,7.2,10.9,7.2C10.7,7.4,10.5,7.5,10.3,7.7z"/>
		</g>
	</g>
</g>
</svg>
