<?xml version="1.0" encoding="utf-8"?>
<!-- Generator: Adobe Illustrator 26.2.1, SVG Export Plug-In . SVG Version: 6.00 Build 0)  -->
<svg version="1.1" id="Capa_1" xmlns="http://www.w3.org/2000/svg" xmlns:xlink="http://www.w3.org/1999/xlink" x="0px" y="0px"
	 viewBox="0 0 113.7 23.2" style="enable-background:new 0 0 113.7 23.2;" xml:space="preserve">
<style type="text/css">
	.st0{fill:#FD9A00;}
	.st1{font-family:'Autography';}
	.st2{font-size:16.3341px;}
</style>
<g>
	<g>
		<path class="st0" d="M15.7,8.1c-0.1,0-0.1,0-0.2,0c0.3,0.3,0.5,0.7,0.3,1.3c-0.7,1.9-1.2,4-1.7,5.9c0.8,0.1,1.5-0.6,1.9-1.2
			c0.6-0.8,1.2-1.9,1.4-2.8C17.8,9.6,17.2,8.4,15.7,8.1z"/>
		<path class="st0" d="M6.2,14.3c-0.5,0.2-0.9,0.6-1,1.2c0,0,0,0.1,0,0.1c0,0,0,0,0,0.1c0,0,0,0,0,0.1c-0.1,0.7,0.2,1.2,0.8,1.4
			c0.9,0.2,1.7-0.3,2-1.3c0.1-0.6,0-1.1-0.2-1.6C7.2,14.2,6.7,14.2,6.2,14.3z"/>
		<path class="st0" d="M12.3,1.1C6.5,1.1,1.8,5.8,1.8,11.6S6.5,22,12.3,22c5.8,0,10.4-4.7,10.4-10.4C22.7,5.8,18,1.1,12.3,1.1z
			 M18.7,14c-0.6,0.8-1.3,1.4-2.1,1.8c-0.7,0.3-1.4,0.4-2,0.2c-0.2-0.1-0.4-0.1-0.6-0.2c-0.2,0.9-0.4,1.8-0.5,2.6
			c-0.1,0.8-0.6,1.1-1.1,1c0,0-0.1,0-0.1,0c-0.3-0.1-0.6-0.4-0.6-0.9c0.1-1.5,1.7-8.1,2.5-10c0.1-0.2,0.2-0.3,0.3-0.4
			c-1.2,0.2-2.2,1.1-2.5,2.3c0,0.1-0.1,0.2-0.2,0.1s-0.2-0.1-0.1-0.2c0,0,0-0.1,0-0.1c0,0,0-0.1,0-0.1c0,0,0,0,0,0c0,0,0,0,0,0
			c0,0,0,0,0,0c0-0.1,0.1-0.2,0.1-0.2c0,0,0,0,0,0c-0.1,0-0.2-0.1-0.1-0.2c0,0,0,0,0-0.1c0,0,0,0,0-0.1c0.1-0.7,0.1-1.2-0.1-1.6
			c-0.3-0.5-0.8-0.9-1.7-1.1C8.2,6.2,7.1,7.4,6.9,8.3c-0.4,1.7,0.5,3,1.3,4.3c0.4,0.5,0.7,1,0.9,1.6c0.9,0.3,1.9,0.8,2.8,1.4
			c0.1,0.1,0.1,0.2,0,0.3c-0.1,0.1-0.2,0.1-0.3,0c-0.7-0.5-1.5-0.9-2.3-1.2c0.2,0.5,0.2,1,0.1,1.5c0,0,0,0,0,0c0,0.1,0,0.1,0,0.2
			c-0.1,0.6-0.5,1-1,1.3c-0.5,0.3-1.2,0.4-2,0.2c-1.2-0.3-1.7-1.2-1.6-2.1c0,0,0,0,0,0c0,0,0-0.1,0-0.1c0,0,0-0.1,0-0.1
			c0,0,0-0.1,0-0.1c0,0,0,0,0,0C5,14.7,5.4,14.2,6.1,14c0.4-0.1,0.9-0.2,1.4-0.2c-0.3-0.4-0.6-0.8-1-1.2c-1-1.2-2.1-2.5-1.7-4.4
			c0,0,0,0,0-0.1c0,0,0,0,0,0c0,0,0-0.1,0-0.1C5,7.1,5.7,6.3,6.7,6c0.8-0.3,1.8-0.4,2.7-0.2c1.2,0.3,2.1,0.9,2.4,1.6
			C12,7.9,12.1,8.4,12,9.1c0.3-0.5,0.7-0.9,1.2-1.2c1-0.6,2.1-0.7,3.4-0.4c1,0.2,1.8,0.7,2.4,1.3c0.7,0.7,1,1.6,0.8,2.5
			C19.7,12.3,19.3,13.2,18.7,14z"/>
	</g>
	<text transform="matrix(1 0 0 1 26.4046 14.7359)" class="st0 st1 st2">creative designer</text>
</g>
</svg>
