<?xml version="1.0" encoding="utf-8"?>
<!-- Generator: Adobe Illustrator 26.2.1, SVG Export Plug-In . SVG Version: 6.00 Build 0)  -->
<svg version="1.1" id="Capa_1" xmlns="http://www.w3.org/2000/svg" xmlns:xlink="http://www.w3.org/1999/xlink" x="0px" y="0px"
	 viewBox="0 0 50 50" style="enable-background:new 0 0 50 50;" xml:space="preserve">
<style type="text/css">
	.st0{fill:#C02021;}
	.st1{fill:#1C1C1B;}
</style>
<g>
	<g>
		<path class="st0" d="M31.1,26.4c0.3,0.1,0.5,0.1,0.6,0.2c0.2,0.1,0.2,0.3,0.2,0.5c0,0.2-0.1,0.4-0.3,0.5c-0.2,0.2-0.5,0.3-0.9,0.3
			h-1.5v-0.1c0.1,0,0.2,0,0.3,0c0,0,0.1-0.1,0.1-0.1c0,0,0-0.1,0-0.3v-1.9c0-0.2,0-0.3,0-0.3c0,0-0.1-0.1-0.1-0.1c0,0-0.1,0-0.3,0
			V25h1.4c0.3,0,0.6,0,0.7,0.1c0.1,0.1,0.2,0.1,0.3,0.3c0.1,0.1,0.1,0.2,0.1,0.4c0,0.1-0.1,0.3-0.2,0.4
			C31.5,26.2,31.4,26.3,31.1,26.4z M30.3,26.5v0.9l0,0.1c0,0.1,0,0.1,0.1,0.2c0,0,0.1,0.1,0.2,0.1c0.1,0,0.2,0,0.3-0.1
			c0.1-0.1,0.2-0.1,0.2-0.2c0.1-0.1,0.1-0.2,0.1-0.3c0-0.1,0-0.3-0.1-0.4c-0.1-0.1-0.1-0.2-0.3-0.2C30.7,26.5,30.6,26.5,30.3,26.5z
			 M30.3,26.3c0.2,0,0.3,0,0.4-0.1c0.1,0,0.2-0.1,0.2-0.2c0.1-0.1,0.1-0.2,0.1-0.3c0-0.1,0-0.2-0.1-0.3c-0.1-0.1-0.1-0.1-0.2-0.2
			c-0.1,0-0.2-0.1-0.5-0.1V26.3z"/>
		<path class="st0" d="M33.9,26.9h-1.1c0,0.3,0.1,0.5,0.2,0.6c0.1,0.1,0.2,0.2,0.4,0.2c0.1,0,0.2,0,0.2-0.1c0.1,0,0.1-0.1,0.2-0.3
			l0.1,0c-0.1,0.2-0.2,0.4-0.4,0.5C33.4,28,33.3,28,33.1,28c-0.3,0-0.5-0.1-0.7-0.3c-0.1-0.2-0.2-0.4-0.2-0.7c0-0.3,0.1-0.6,0.3-0.8
			c0.2-0.2,0.4-0.3,0.6-0.3c0.2,0,0.4,0.1,0.5,0.3C33.8,26.3,33.9,26.5,33.9,26.9z M33.4,26.7c0-0.2,0-0.4,0-0.5
			c0-0.1-0.1-0.2-0.1-0.2c0,0-0.1,0-0.1,0c-0.1,0-0.1,0-0.2,0.1c-0.1,0.1-0.1,0.3-0.1,0.5v0.1H33.4z"/>
		<path class="st0" d="M34.9,25v2.5c0,0.1,0,0.2,0,0.3c0,0,0.1,0.1,0.2,0.1v0.1h-1.1v-0.1c0.1,0,0.2,0,0.2-0.1c0,0,0-0.1,0-0.3v-2.1
			c0-0.1,0-0.2,0-0.3c0,0-0.1-0.1-0.2-0.1V25H34.9z"/>
		<path class="st0" d="M36.1,25v2.5c0,0.1,0,0.2,0,0.3c0,0,0.1,0.1,0.2,0.1v0.1h-1.1v-0.1c0.1,0,0.2,0,0.2-0.1c0,0,0-0.1,0-0.3v-2.1
			c0-0.1,0-0.2,0-0.3c0,0-0.1-0.1-0.2-0.1V25H36.1z"/>
		<path class="st0" d="M37.7,27.6C37.4,27.9,37.2,28,37,28c-0.1,0-0.2,0-0.3-0.1c-0.1-0.1-0.1-0.2-0.1-0.3c0-0.2,0.1-0.3,0.2-0.4
			c0.1-0.1,0.4-0.3,0.9-0.5v-0.2c0-0.2,0-0.2,0-0.3c0,0,0-0.1-0.1-0.1c0,0-0.1,0-0.2,0c-0.1,0-0.2,0-0.2,0.1c0,0-0.1,0.1-0.1,0.1
			c0,0,0,0.1,0.1,0.1c0.1,0.1,0.1,0.1,0.1,0.2c0,0.1,0,0.1-0.1,0.2c-0.1,0-0.1,0.1-0.2,0.1c-0.1,0-0.2,0-0.2-0.1
			c-0.1-0.1-0.1-0.1-0.1-0.2c0-0.1,0-0.2,0.1-0.3c0.1-0.1,0.2-0.2,0.3-0.2c0.1-0.1,0.3-0.1,0.5-0.1c0.2,0,0.3,0,0.4,0.1
			c0.1,0.1,0.2,0.2,0.2,0.3c0,0.1,0,0.2,0,0.4v0.8c0,0.1,0,0.1,0,0.2c0,0,0,0,0,0.1c0,0,0,0,0,0c0,0,0.1,0,0.1-0.1l0.1,0.1
			c-0.1,0.1-0.1,0.2-0.2,0.2c-0.1,0-0.2,0.1-0.3,0.1c-0.1,0-0.2,0-0.3-0.1C37.7,27.8,37.7,27.8,37.7,27.6z M37.7,27.5v-0.7
			c-0.2,0.1-0.3,0.2-0.4,0.3c-0.1,0.1-0.1,0.2-0.1,0.2c0,0.1,0,0.1,0.1,0.2c0,0,0.1,0.1,0.1,0.1C37.5,27.6,37.6,27.6,37.7,27.5z"/>
		<path class="st0" d="M39.7,28L39,26.4c-0.1-0.2-0.1-0.3-0.2-0.4c0,0-0.1-0.1-0.1-0.1v-0.1h1.1V26c-0.1,0-0.1,0-0.1,0
			c0,0-0.1,0.1-0.1,0.1c0,0.1,0,0.2,0.1,0.3l0.3,0.8l0.3-0.7c0.1-0.2,0.1-0.3,0.1-0.4c0,0,0-0.1,0-0.1c0,0-0.1,0-0.2,0v-0.1h0.7V26
			c-0.1,0-0.1,0-0.2,0.1c0,0-0.1,0.2-0.2,0.3L39.7,28L39.7,28z"/>
		<path class="st0" d="M41.7,25.9v1.6c0,0.1,0,0.2,0,0.3c0,0,0.1,0.1,0.2,0.1v0.1h-1.1v-0.1c0.1,0,0.2,0,0.2-0.1c0,0,0-0.1,0-0.3
			v-1.2c0-0.1,0-0.2,0-0.3c0,0-0.1-0.1-0.2-0.1v-0.1H41.7z M41.4,25c0.1,0,0.2,0,0.2,0.1c0.1,0.1,0.1,0.1,0.1,0.2
			c0,0.1,0,0.2-0.1,0.2c-0.1,0.1-0.1,0.1-0.2,0.1c-0.1,0-0.2,0-0.2-0.1c-0.1-0.1-0.1-0.1-0.1-0.2c0-0.1,0-0.2,0.1-0.2
			C41.2,25,41.3,25,41.4,25z"/>
		<path class="st0" d="M44.1,25v2.3c0,0.2,0,0.2,0,0.3c0,0,0,0.1,0.1,0.1c0,0,0.1,0,0.2,0v0.1L43.5,28v-0.3
			c-0.1,0.1-0.2,0.2-0.3,0.3C43.1,28,43,28,42.9,28c-0.3,0-0.5-0.1-0.6-0.3c-0.1-0.2-0.2-0.4-0.2-0.7c0-0.2,0-0.4,0.1-0.6
			c0.1-0.2,0.2-0.3,0.3-0.4c0.1-0.1,0.3-0.1,0.4-0.1c0.1,0,0.2,0,0.3,0.1c0.1,0,0.2,0.1,0.2,0.2v-0.6c0-0.2,0-0.2,0-0.3
			c0,0,0-0.1-0.1-0.1c0,0-0.1,0-0.2,0V25H44.1z M43.5,26.4c-0.1-0.2-0.2-0.3-0.4-0.3c-0.1,0-0.1,0-0.1,0c-0.1,0-0.1,0.1-0.1,0.2
			c0,0.1-0.1,0.3-0.1,0.5c0,0.3,0,0.4,0.1,0.6c0,0.1,0.1,0.2,0.2,0.3c0,0,0.1,0,0.1,0c0.1,0,0.2-0.1,0.4-0.3V26.4z"/>
		<path class="st0" d="M45.7,27.6C45.4,27.9,45.2,28,45,28c-0.1,0-0.2,0-0.3-0.1c-0.1-0.1-0.1-0.2-0.1-0.3c0-0.2,0.1-0.3,0.2-0.4
			c0.1-0.1,0.4-0.3,0.9-0.5v-0.2c0-0.2,0-0.2,0-0.3c0,0,0-0.1-0.1-0.1c0,0-0.1,0-0.2,0c-0.1,0-0.2,0-0.2,0.1c0,0-0.1,0.1-0.1,0.1
			c0,0,0,0.1,0.1,0.1c0.1,0.1,0.1,0.1,0.1,0.2c0,0.1,0,0.1-0.1,0.2c-0.1,0-0.1,0.1-0.2,0.1c-0.1,0-0.2,0-0.2-0.1
			c-0.1-0.1-0.1-0.1-0.1-0.2c0-0.1,0-0.2,0.1-0.3c0.1-0.1,0.2-0.2,0.3-0.2c0.1-0.1,0.3-0.1,0.5-0.1c0.2,0,0.3,0,0.4,0.1
			c0.1,0.1,0.2,0.2,0.2,0.3c0,0.1,0,0.2,0,0.4v0.8c0,0.1,0,0.1,0,0.2c0,0,0,0,0,0.1c0,0,0,0,0,0c0,0,0.1,0,0.1-0.1l0.1,0.1
			c-0.1,0.1-0.1,0.2-0.2,0.2C46.2,28,46.1,28,46,28c-0.1,0-0.2,0-0.3-0.1C45.7,27.8,45.7,27.8,45.7,27.6z M45.7,27.5v-0.7
			c-0.2,0.1-0.3,0.2-0.4,0.3c-0.1,0.1-0.1,0.2-0.1,0.2c0,0.1,0,0.1,0.1,0.2c0,0,0.1,0.1,0.1,0.1C45.5,27.6,45.6,27.6,45.7,27.5z"/>
	</g>
	<g>
		<path class="st0" d="M12,33.5V34c0,0.1,0,0.2,0,0.2c0,0,0,0,0.1,0.1c0,0,0.1,0,0.2,0v0h-1v0c0.1,0,0.1,0,0.2,0c0,0,0.1,0,0.1-0.1
			c0,0,0-0.1,0-0.2v-1.2c0-0.1,0-0.2,0-0.2c0,0,0,0-0.1-0.1c0,0-0.1,0-0.2,0v0h0.8c0.3,0,0.5,0,0.6,0.1c0.1,0.1,0.2,0.2,0.2,0.3
			c0,0.1,0,0.2-0.1,0.3c-0.1,0.1-0.2,0.1-0.3,0.2C12.3,33.5,12.2,33.5,12,33.5z M12,32.6v0.8c0,0,0.1,0,0.1,0c0.1,0,0.2,0,0.3-0.1
			c0.1-0.1,0.1-0.2,0.1-0.3c0-0.1,0-0.2-0.1-0.3C12.2,32.7,12.1,32.6,12,32.6L12,32.6z"/>
		<path class="st0" d="M13.6,33.1v0.3c0.1-0.1,0.2-0.2,0.2-0.3c0.1,0,0.1-0.1,0.2-0.1c0.1,0,0.1,0,0.1,0c0,0,0,0.1,0,0.1
			c0,0.1,0,0.1,0,0.1c0,0-0.1,0-0.1,0c-0.1,0-0.1,0-0.1,0c0,0-0.1,0-0.1-0.1c0,0,0,0,0,0c0,0-0.1,0-0.1,0c0,0-0.1,0.1-0.1,0.1
			c0,0.1,0,0.2,0,0.3V34l0,0.1c0,0.1,0,0.1,0,0.1c0,0,0,0,0.1,0.1c0,0,0.1,0,0.1,0v0h-0.7v0c0.1,0,0.1,0,0.1,0c0,0,0-0.1,0-0.2v-0.7
			c0-0.1,0-0.1,0-0.1c0,0,0,0,0-0.1c0,0,0,0-0.1,0v0H13.6z"/>
		<path class="st0" d="M14.9,33c0.1,0,0.2,0,0.3,0.1c0.1,0.1,0.2,0.1,0.2,0.2c0.1,0.1,0.1,0.2,0.1,0.3c0,0.2,0,0.3-0.1,0.4
			c-0.1,0.1-0.3,0.2-0.5,0.2c-0.2,0-0.4-0.1-0.5-0.2c-0.1-0.1-0.2-0.3-0.2-0.5c0-0.2,0.1-0.3,0.2-0.5C14.6,33.1,14.7,33,14.9,33z
			 M14.9,33.1c0,0-0.1,0-0.1,0.1c0,0-0.1,0.1-0.1,0.2c0,0.1,0,0.2,0,0.4c0,0.1,0,0.2,0,0.3c0,0.1,0,0.1,0.1,0.1c0,0,0.1,0,0.1,0
			c0,0,0.1,0,0.1,0c0,0,0.1-0.1,0.1-0.1c0-0.1,0-0.3,0-0.5c0-0.2,0-0.3,0-0.3C15.1,33.2,15.1,33.2,14.9,33.1
			C15,33.1,15,33.1,14.9,33.1z"/>
		<path class="st0" d="M16.3,33.2v0.9c0,0.1,0,0.1,0,0.2c0,0,0.1,0,0.2,0v0h-0.8v0c0.1,0,0.1,0,0.1,0c0,0,0,0,0.1-0.1
			c0,0,0-0.1,0-0.1v-0.9h-0.2v-0.1h0.2V33l0-0.1c0-0.1,0-0.2,0.1-0.3c0.1-0.1,0.2-0.1,0.4-0.1c0.1,0,0.2,0,0.3,0.1
			c0.1,0,0.1,0.1,0.1,0.1c0,0,0,0.1-0.1,0.1c0,0-0.1,0-0.1,0c0,0-0.1,0-0.1,0c0,0,0-0.1,0-0.1c0,0,0,0,0,0c0,0,0,0,0,0c0,0,0,0,0,0
			c0,0,0,0-0.1,0c0,0-0.1,0-0.1,0c0,0,0,0.1,0,0.1l0,0.2v0.2h0.2v0.1H16.3z"/>
		<path class="st0" d="M17.8,33.7h-0.7c0,0.2,0.1,0.3,0.1,0.4c0.1,0.1,0.1,0.1,0.2,0.1c0.1,0,0.1,0,0.2,0c0,0,0.1-0.1,0.1-0.2l0,0
			c-0.1,0.1-0.2,0.2-0.2,0.3c-0.1,0.1-0.2,0.1-0.3,0.1c-0.2,0-0.3-0.1-0.4-0.2c-0.1-0.1-0.1-0.3-0.1-0.4c0-0.2,0.1-0.4,0.2-0.5
			c0.1-0.1,0.3-0.2,0.4-0.2c0.1,0,0.3,0.1,0.3,0.2C17.8,33.3,17.8,33.5,17.8,33.7z M17.5,33.6c0-0.1,0-0.2,0-0.3
			c0-0.1,0-0.1-0.1-0.1c0,0,0,0-0.1,0c0,0-0.1,0-0.1,0.1c-0.1,0.1-0.1,0.2-0.1,0.3v0H17.5z"/>
		<path class="st0" d="M18.8,33l0,0.4h0c-0.1-0.1-0.1-0.2-0.2-0.3c-0.1,0-0.1-0.1-0.2-0.1c0,0-0.1,0-0.1,0c0,0,0,0.1,0,0.1
			c0,0,0,0,0,0.1c0,0,0.1,0.1,0.3,0.2c0.1,0.1,0.2,0.2,0.3,0.2c0,0.1,0.1,0.1,0.1,0.2c0,0.1,0,0.1-0.1,0.2c0,0.1-0.1,0.1-0.2,0.2
			c-0.1,0-0.1,0.1-0.2,0.1c-0.1,0-0.1,0-0.3-0.1c0,0,0,0-0.1,0c0,0-0.1,0-0.1,0.1h0l0-0.4h0c0,0.1,0.1,0.2,0.2,0.3
			c0.1,0.1,0.1,0.1,0.2,0.1c0,0,0.1,0,0.1,0c0,0,0-0.1,0-0.1c0,0,0-0.1,0-0.1c0,0-0.1-0.1-0.2-0.1c-0.1-0.1-0.2-0.2-0.3-0.2
			C18,33.6,18,33.5,18,33.4c0-0.1,0-0.2,0.1-0.3c0.1-0.1,0.2-0.1,0.3-0.1c0.1,0,0.1,0,0.2,0c0,0,0,0,0.1,0
			C18.7,33.1,18.7,33.1,18.8,33C18.7,33.1,18.8,33.1,18.8,33L18.8,33z"/>
		<path class="st0" d="M20,33l0,0.4h0c-0.1-0.1-0.1-0.2-0.2-0.3c-0.1,0-0.1-0.1-0.2-0.1c0,0-0.1,0-0.1,0c0,0,0,0.1,0,0.1
			c0,0,0,0,0,0.1c0,0,0.1,0.1,0.3,0.2c0.1,0.1,0.2,0.2,0.3,0.2c0,0.1,0.1,0.1,0.1,0.2c0,0.1,0,0.1-0.1,0.2c0,0.1-0.1,0.1-0.2,0.2
			c-0.1,0-0.1,0.1-0.2,0.1c-0.1,0-0.1,0-0.3-0.1c0,0,0,0-0.1,0c0,0-0.1,0-0.1,0.1h0l0-0.4h0c0,0.1,0.1,0.2,0.2,0.3
			c0.1,0.1,0.1,0.1,0.2,0.1c0,0,0.1,0,0.1,0c0,0,0-0.1,0-0.1c0,0,0-0.1,0-0.1c0,0-0.1-0.1-0.2-0.1c-0.1-0.1-0.2-0.2-0.3-0.2
			c-0.1-0.1-0.1-0.2-0.1-0.2c0-0.1,0-0.2,0.1-0.3c0.1-0.1,0.2-0.1,0.3-0.1c0.1,0,0.1,0,0.2,0c0,0,0,0,0.1,0
			C19.8,33.1,19.9,33.1,20,33C19.9,33.1,19.9,33.1,20,33L20,33z"/>
		<path class="st0" d="M20.8,33.1v1c0,0.1,0,0.1,0,0.2c0,0,0.1,0,0.1,0v0h-0.7v0c0.1,0,0.1,0,0.1,0c0,0,0-0.1,0-0.2v-0.7
			c0-0.1,0-0.1,0-0.2c0,0-0.1,0-0.1,0v0H20.8z M20.6,32.5c0.1,0,0.1,0,0.2,0.1c0,0,0.1,0.1,0.1,0.1c0,0.1,0,0.1-0.1,0.1
			c0,0-0.1,0.1-0.2,0.1c-0.1,0-0.1,0-0.2-0.1c0,0-0.1-0.1-0.1-0.1c0-0.1,0-0.1,0.1-0.1C20.5,32.5,20.5,32.5,20.6,32.5z"/>
		<path class="st0" d="M21.7,33c0.1,0,0.2,0,0.3,0.1c0.1,0.1,0.2,0.1,0.2,0.2c0.1,0.1,0.1,0.2,0.1,0.3c0,0.2,0,0.3-0.1,0.4
			c-0.1,0.1-0.3,0.2-0.5,0.2c-0.2,0-0.4-0.1-0.5-0.2c-0.1-0.1-0.2-0.3-0.2-0.5c0-0.2,0.1-0.3,0.2-0.5C21.3,33.1,21.5,33,21.7,33z
			 M21.7,33.1c0,0-0.1,0-0.1,0.1c0,0-0.1,0.1-0.1,0.2c0,0.1,0,0.2,0,0.4c0,0.1,0,0.2,0,0.3c0,0.1,0,0.1,0.1,0.1c0,0,0.1,0,0.1,0
			c0,0,0.1,0,0.1,0c0,0,0.1-0.1,0.1-0.1c0-0.1,0-0.3,0-0.5c0-0.2,0-0.3,0-0.3C21.9,33.2,21.8,33.2,21.7,33.1
			C21.8,33.1,21.7,33.1,21.7,33.1z"/>
		<path class="st0" d="M23.1,33.1v0.2c0.1-0.1,0.1-0.1,0.2-0.2c0.1,0,0.1,0,0.2,0c0.1,0,0.2,0,0.2,0.1c0.1,0,0.1,0.1,0.1,0.2
			c0,0.1,0,0.1,0,0.3v0.5c0,0.1,0,0.2,0,0.2c0,0,0.1,0,0.1,0v0h-0.7v0c0.1,0,0.1,0,0.1-0.1c0,0,0-0.1,0-0.2v-0.6c0-0.1,0-0.2,0-0.2
			c0,0,0,0,0-0.1c0,0,0,0-0.1,0c-0.1,0-0.2,0.1-0.2,0.2v0.7c0,0.1,0,0.2,0,0.2c0,0,0.1,0,0.1,0v0h-0.7v0c0.1,0,0.1,0,0.1-0.1
			c0,0,0-0.1,0-0.2v-0.7c0-0.1,0-0.2,0-0.2c0,0-0.1,0-0.1,0v0H23.1z"/>
		<path class="st0" d="M24.9,34.1c-0.2,0.1-0.3,0.2-0.4,0.2c-0.1,0-0.1,0-0.2-0.1c-0.1,0-0.1-0.1-0.1-0.2c0-0.1,0-0.2,0.1-0.3
			c0.1-0.1,0.3-0.2,0.6-0.3v-0.1c0-0.1,0-0.2,0-0.2c0,0,0,0-0.1-0.1c0,0-0.1,0-0.1,0c-0.1,0-0.1,0-0.2,0c0,0,0,0,0,0.1
			c0,0,0,0,0,0.1c0,0,0.1,0.1,0.1,0.1c0,0,0,0.1-0.1,0.1c0,0-0.1,0-0.1,0c-0.1,0-0.1,0-0.1-0.1c0,0-0.1-0.1-0.1-0.1
			c0-0.1,0-0.1,0.1-0.2c0.1-0.1,0.1-0.1,0.2-0.1c0.1,0,0.2,0,0.3,0c0.1,0,0.2,0,0.3,0.1c0.1,0.1,0.1,0.1,0.1,0.2c0,0,0,0.1,0,0.3V34
			c0,0.1,0,0.1,0,0.1c0,0,0,0,0,0c0,0,0,0,0,0c0,0,0,0,0.1,0l0,0c0,0.1-0.1,0.1-0.1,0.1c-0.1,0-0.1,0-0.2,0c-0.1,0-0.1,0-0.2-0.1
			C24.9,34.3,24.9,34.2,24.9,34.1z M24.9,34v-0.4c-0.1,0.1-0.2,0.1-0.3,0.2c0,0-0.1,0.1-0.1,0.1c0,0,0,0.1,0,0.1c0,0,0.1,0,0.1,0
			C24.7,34.1,24.8,34.1,24.9,34z"/>
		<path class="st0" d="M26.1,32.5v1.6c0,0.1,0,0.1,0,0.2c0,0,0.1,0,0.1,0v0h-0.7v0c0.1,0,0.1,0,0.1,0c0,0,0-0.1,0-0.2v-1.3
			c0-0.1,0-0.1,0-0.2c0,0-0.1,0-0.1,0v0H26.1z"/>
		<path class="st0" d="M29,32.5v0.6h-0.1c0-0.2-0.1-0.3-0.2-0.4c-0.1-0.1-0.2-0.1-0.4-0.1c-0.1,0-0.2,0-0.3,0.1
			c-0.1,0.1-0.2,0.1-0.2,0.3c-0.1,0.1-0.1,0.3-0.1,0.4c0,0.2,0,0.3,0.1,0.4c0,0.1,0.1,0.2,0.2,0.3c0.1,0.1,0.2,0.1,0.4,0.1
			c0.1,0,0.2,0,0.3-0.1c0.1,0,0.2-0.1,0.3-0.3v0.2c-0.1,0.1-0.2,0.2-0.3,0.2c-0.1,0-0.3,0.1-0.4,0.1c-0.2,0-0.4,0-0.5-0.1
			c-0.2-0.1-0.3-0.2-0.4-0.3c-0.1-0.1-0.1-0.3-0.1-0.5c0-0.2,0-0.3,0.1-0.5c0.1-0.2,0.2-0.3,0.4-0.4c0.2-0.1,0.3-0.1,0.5-0.1
			c0.1,0,0.3,0,0.4,0.1c0.1,0,0.1,0,0.2,0C28.8,32.6,28.8,32.6,29,32.5C28.9,32.6,28.9,32.5,29,32.5L29,32.5z"/>
		<path class="st0" d="M29.8,33c0.1,0,0.2,0,0.3,0.1c0.1,0.1,0.2,0.1,0.2,0.2c0.1,0.1,0.1,0.2,0.1,0.3c0,0.2,0,0.3-0.1,0.4
			c-0.1,0.1-0.3,0.2-0.5,0.2c-0.2,0-0.4-0.1-0.5-0.2c-0.1-0.1-0.2-0.3-0.2-0.5c0-0.2,0.1-0.3,0.2-0.5C29.5,33.1,29.6,33,29.8,33z
			 M29.8,33.1c0,0-0.1,0-0.1,0.1c0,0-0.1,0.1-0.1,0.2c0,0.1,0,0.2,0,0.4c0,0.1,0,0.2,0,0.3c0,0.1,0,0.1,0.1,0.1c0,0,0.1,0,0.1,0
			c0,0,0.1,0,0.1,0c0,0,0.1-0.1,0.1-0.1c0-0.1,0-0.3,0-0.5c0-0.2,0-0.3,0-0.3C30,33.2,30,33.2,29.8,33.1
			C29.9,33.1,29.9,33.1,29.8,33.1z"/>
		<path class="st0" d="M31.5,33l0,0.4h0c-0.1-0.1-0.1-0.2-0.2-0.3c-0.1,0-0.1-0.1-0.2-0.1c0,0-0.1,0-0.1,0c0,0,0,0.1,0,0.1
			c0,0,0,0,0,0.1c0,0,0.1,0.1,0.3,0.2c0.1,0.1,0.2,0.2,0.3,0.2c0,0.1,0.1,0.1,0.1,0.2c0,0.1,0,0.1-0.1,0.2c0,0.1-0.1,0.1-0.2,0.2
			c-0.1,0-0.1,0.1-0.2,0.1c-0.1,0-0.1,0-0.3-0.1c0,0,0,0-0.1,0c0,0-0.1,0-0.1,0.1h0l0-0.4h0c0,0.1,0.1,0.2,0.2,0.3
			c0.1,0.1,0.1,0.1,0.2,0.1c0,0,0.1,0,0.1,0c0,0,0-0.1,0-0.1c0,0,0-0.1,0-0.1c0,0-0.1-0.1-0.2-0.1c-0.1-0.1-0.2-0.2-0.3-0.2
			c-0.1-0.1-0.1-0.2-0.1-0.2c0-0.1,0-0.2,0.1-0.3c0.1-0.1,0.2-0.1,0.3-0.1c0.1,0,0.1,0,0.2,0c0,0,0,0,0.1,0
			C31.4,33.1,31.4,33.1,31.5,33C31.4,33.1,31.4,33.1,31.5,33L31.5,33z"/>
		<path class="st0" d="M32.3,33.1v0.2c0.1-0.1,0.1-0.1,0.2-0.2c0.1,0,0.1,0,0.2,0c0.1,0,0.2,0,0.2,0.1c0.1,0,0.1,0.1,0.1,0.2
			c0.1-0.1,0.1-0.1,0.2-0.2c0.1,0,0.1-0.1,0.2-0.1c0.1,0,0.2,0,0.2,0.1c0.1,0,0.1,0.1,0.1,0.2c0,0.1,0,0.2,0,0.3v0.5
			c0,0.1,0,0.2,0,0.2c0,0,0.1,0,0.1,0v0h-0.7v0c0.1,0,0.1,0,0.1-0.1c0,0,0-0.1,0-0.2v-0.5c0-0.1,0-0.2,0-0.2c0,0,0-0.1,0-0.1
			c0,0,0,0-0.1,0c0,0-0.1,0-0.1,0c0,0-0.1,0.1-0.1,0.1v0.7c0,0.1,0,0.1,0,0.2c0,0,0.1,0.1,0.1,0.1v0h-0.7v0c0,0,0.1,0,0.1,0
			c0,0,0,0,0-0.1c0,0,0-0.1,0-0.1v-0.5c0-0.1,0-0.2,0-0.2c0,0,0-0.1,0-0.1c0,0,0,0-0.1,0c0,0-0.1,0-0.1,0c0,0-0.1,0.1-0.1,0.1v0.7
			c0,0.1,0,0.1,0,0.2c0,0,0.1,0,0.1,0.1v0h-0.7v0c0.1,0,0.1,0,0.1-0.1c0,0,0-0.1,0-0.2v-0.7c0-0.1,0-0.2,0-0.2c0,0-0.1,0-0.1,0v0
			H32.3z"/>
		<path class="st0" d="M35.3,33.7h-0.7c0,0.2,0.1,0.3,0.1,0.4c0.1,0.1,0.1,0.1,0.2,0.1c0.1,0,0.1,0,0.2,0c0,0,0.1-0.1,0.1-0.2l0,0
			c-0.1,0.1-0.2,0.2-0.2,0.3c-0.1,0.1-0.2,0.1-0.3,0.1c-0.2,0-0.3-0.1-0.4-0.2c-0.1-0.1-0.1-0.3-0.1-0.4c0-0.2,0.1-0.4,0.2-0.5
			c0.1-0.1,0.3-0.2,0.4-0.2c0.1,0,0.3,0.1,0.3,0.2C35.3,33.3,35.3,33.5,35.3,33.7z M35,33.6c0-0.1,0-0.2,0-0.3c0-0.1,0-0.1-0.1-0.1
			c0,0,0,0-0.1,0c0,0-0.1,0-0.1,0.1c-0.1,0.1-0.1,0.2-0.1,0.3v0H35z"/>
		<path class="st0" d="M36,32.6v0.5h0.3v0.1H36V34c0,0.1,0,0.1,0,0.1c0,0,0,0,0,0.1c0,0,0,0,0,0c0.1,0,0.1,0,0.2-0.1l0,0
			c-0.1,0.2-0.2,0.3-0.4,0.3c-0.1,0-0.2,0-0.2-0.1c-0.1,0-0.1-0.1-0.1-0.1c0,0,0-0.1,0-0.2v-0.7h-0.2v0c0.1-0.1,0.2-0.2,0.3-0.2
			C35.8,32.8,35.9,32.7,36,32.6L36,32.6z"/>
		<path class="st0" d="M37,33.1v1c0,0.1,0,0.1,0,0.2c0,0,0.1,0,0.1,0v0h-0.7v0c0.1,0,0.1,0,0.1,0c0,0,0-0.1,0-0.2v-0.7
			c0-0.1,0-0.1,0-0.2c0,0-0.1,0-0.1,0v0H37z M36.8,32.5c0.1,0,0.1,0,0.2,0.1c0,0,0.1,0.1,0.1,0.1c0,0.1,0,0.1-0.1,0.1
			c0,0-0.1,0.1-0.2,0.1c-0.1,0-0.1,0-0.2-0.1c0,0-0.1-0.1-0.1-0.1c0-0.1,0-0.1,0.1-0.1C36.7,32.5,36.7,32.5,36.8,32.5z"/>
		<path class="st0" d="M38.4,34L38.4,34c0,0.1-0.1,0.2-0.2,0.3c-0.1,0.1-0.2,0.1-0.3,0.1c-0.2,0-0.3-0.1-0.4-0.2
			c-0.1-0.1-0.2-0.3-0.2-0.5c0-0.2,0-0.3,0.1-0.4c0.1-0.2,0.3-0.2,0.5-0.2c0.1,0,0.2,0,0.3,0.1c0.1,0.1,0.1,0.1,0.1,0.2
			c0,0.1,0,0.1,0,0.1c0,0-0.1,0-0.1,0c-0.1,0-0.1,0-0.1-0.1c0,0-0.1-0.1-0.1-0.2c0-0.1,0-0.1,0-0.1c0,0,0,0-0.1,0c0,0-0.1,0-0.1,0.1
			c0,0.1-0.1,0.2-0.1,0.3c0,0.1,0,0.2,0.1,0.3c0,0.1,0.1,0.2,0.2,0.2c0.1,0,0.1,0.1,0.2,0.1c0,0,0.1,0,0.1,0
			C38.2,34.1,38.3,34.1,38.4,34z"/>
	</g>
	<path class="st0" d="M18,16.4c0,0,0.3,0.2,0.7,0.6c-0.5,0.2-1,0.5-1.4,0.8c-0.4,0.4-0.9,0.9-1.5,1.7c-0.8,0.8-1.6,1.7-2.5,2.7
		l-0.1,0.1c-1.8,2-3.3,3.5-4.4,4.3c-1.1,0.8-2,1.3-2.9,1.3c-0.5,0-0.9-0.1-1.2-0.4c-0.4-0.3-0.6-0.5-0.6-0.8c0-0.1,0-0.1,0-0.1
		c0,0,0,0,0.1,0c0.1,0,0.1,0,0.2,0c0.1,0,0.2,0,0.2,0c0.3,0,0.5-0.1,0.6-0.2c0.1-0.1,0.2-0.3,0.2-0.5c0-0.2-0.1-0.4-0.2-0.5
		c-0.1-0.1-0.3-0.2-0.6-0.2c-0.3,0-0.6,0.1-0.8,0.3c-0.2,0.2-0.3,0.5-0.3,0.8c0,0.5,0.2,1,0.7,1.4c0.4,0.3,0.8,0.4,1.4,0.5l0,0
		c0,0,0,0,0,0c0.2,0,0.3,0,0.5,0c0.1,0,0.2,0,0.3,0c1.4,0,4.1-0.3,5.5-2.2c1.7-2.2,4.7-6.6,7.1-8.6c0.5,1.2,0.6,4.3-3.5,4.7l0.3,0.1
		c0,0,2.1,1.3,0.9,3.4c-1.5,2.7-3.4,2.8-4.3,2.3c-0.8-0.4,0.1-3,2.9-2.9c0.1-0.2-1.5-0.8-3.1,1.3c-0.5,0.6-0.7,2.5,2,2.1
		c2.9-0.4,6-3.2,2.1-6.2c0.5-0.1,6.7,0.1,3.2-5.2c0,0,0,0,0,0c0.4-0.3,0.8-0.5,1.2-0.6c0,0-0.7,0-1.6,0.3c-0.2-0.2-0.9-0.8-1.5-0.9
		c-0.5-0.1-1.1-0.2-1.8-0.2c-1.2,0-2.4,0.2-3.6,0.6c-1.2,0.4-2.4,1-3.4,1.7c-0.9,0.6-1.6,1.2-2,1.8c-0.5,0.6-0.7,1.2-0.7,1.8
		c0,0.5,0.2,0.9,0.5,1.2c0.4,0.3,0.9,0.4,1.5,0.4c0.8,0,1.6-0.2,2.4-0.6c0.8-0.4,1.5-0.9,2.1-1.5c0.4-0.5,0.8-1,1.1-1.5
		c0.3-0.5,0.4-0.9,0.4-1.2c0-0.1,0-0.1,0-0.2c0,0-0.1-0.1-0.1-0.1c-0.1,0,0,0.1-0.1,0.5c-0.2,0.3-0.3,0.8-0.6,1.1
		c-1,1.4-1.8,1.8-2.7,2.3c-1,0.6-1.9,0.6-2.6,0.6c-0.4,0-0.8-0.1-1-0.3c-0.3-0.2-0.4-0.5-0.4-0.9c0-0.6,0.3-1.2,1-1.9
		c0.6-0.7,1.5-1.4,2.6-1.9c1-0.5,2-0.9,2.9-1.2c1-0.3,2-0.4,2.9-0.4C16,16,17.5,16.1,18,16.4z"/>
	<path class="st0" d="M36.8,15.6c-2.5,1-10.8,12.9-13.6,11.8c1.6-0.6,3.6-3.6,6.4-8.2c0.5-0.7,0.9-1.4,1.3-1.9
		c0.1-0.1,0.2-0.2,0.3-0.3c0.8-0.9,1.2-1.2,0.5-1.2c0,0-0.2,0.2-0.6,0.5c-0.7,0.6-2,1.3-3,0.8c-1.5-0.8-3.8-2.5-6.1,0.2
		c-0.5,0.5-1.3,3.4,2.2,2.9c1-0.2,2.1-1.1,2-1.6c-0.2-0.1-2.2,1.8-3.7,1c-0.4-0.3-1.1-2.4,1.5-3c1.1-0.2,1.5,1.2,2.7,1.4
		c0.7,0.1,1.8,0.1,2.7-0.1c-2.3,2.3-5.8,6.2-7.1,10.1c0,0,2.7,0.5,6.6-3.5c3.8-4.5,7.9-9.3,8.5-8.1c-0.4,0.3-0.5,1.3,0.4,1.1
		C38.7,17.3,38.8,15.5,36.8,15.6z"/>
	<path class="st1" d="M0,30.4c0,0,12.2-1,22-0.8c9.8,0.2,28,0.4,28,0.4s-17.2,1.9-38.8,0.4C6.2,30.7,0.7,30.5,0,30.4z"/>
</g>
</svg>
