<?xml version="1.0" encoding="utf-8"?>
<!-- Generator: Adobe Illustrator 26.2.1, SVG Export Plug-In . SVG Version: 6.00 Build 0)  -->
<svg version="1.1" id="Capa_1" xmlns="http://www.w3.org/2000/svg" xmlns:xlink="http://www.w3.org/1999/xlink" x="0px" y="0px"
	 viewBox="0 0 100 100" style="enable-background:new 0 0 100 100;" xml:space="preserve">
<style type="text/css">
	.st0{fill:#08BDBD;}
	.st1{fill:none;stroke:#FFFFFF;stroke-width:0.15;stroke-miterlimit:10;}
	.st2{fill:#FFFFFF;}
</style>
<g>
	<g>
		<g>
			<g>
				<path class="st0" d="M16.7,81.8c3.5,6,8.8,9,16,9c4.5,0,8-1,10.6-3.1s3.9-5,3.9-8.8c0-3.3-0.8-6-2.1-8.6c-1.5-2.5-3.4-4.9-5.9-7
					s-5.6-4.5-9.8-7.1c-4.9-3.3-8.8-6.1-11.6-8.5c-2.9-2.4-5.3-5.3-7.1-8.4C8.8,36,7.9,32.4,7.9,28.1c0-5,1.4-9.3,4.1-12.8
					s6.4-6,10.9-7.6s9.5-2.5,15-2.5c4.6,0,8.4,0.4,11.3,1.3c2.9,0.9,5.6,2,8.4,3.5c1.1,0.6,2,1.1,2.5,1.4c0.5,0.3,1.1,0.4,1.6,0.4
					c0.8,0,1.4-0.4,1.8-1.3c0.4-0.9,0.8-2.3,1-4h2.8c-0.4,5.8-0.6,15.6-0.6,29.5h-2.8c-0.4-4.6-1.4-9-3.1-13.3
					c-1.8-4.3-4.3-7.6-7.3-10.3s-6.6-4-10.6-4c-3.6,0-6.6,1-8.9,3s-3.4,4.8-3.4,8.3c0,2.9,0.6,5.4,2,7.5c1.4,2.1,3.3,4,5.6,5.9
					s7,5.1,13.6,9.8c4.5,3.1,8,5.9,10.6,8.1c2.6,2.4,4.8,5.1,6.5,8.3c1.6,3.1,2.5,6.8,2.5,10.9c0,5.3-1.5,9.6-4.4,13.3
					c-3,3.6-6.9,6.3-11.9,8.1c-5,1.8-10.5,2.6-16.6,2.6c-5,0-9.1-0.4-12.4-1.3c-3.3-0.8-6.3-1.9-9.1-3.3c-1.9-1.1-3.1-1.8-4.1-1.8
					c-0.8,0-1.4,0.4-1.8,1.3c-0.4,0.9-0.8,2.1-1,4.1H7.4c0.4-6.1,0.5-17.9,0.5-35.1h2.8C11.2,68,13.2,75.8,16.7,81.8z"/>
			</g>
			<g>
				<path class="st0" d="M82,53.5c2,0,3.9,0.5,5.5,1.6c1.6,1.1,2.9,2.9,3.8,5.1c0.9,2.3,1.4,5.1,1.4,8.4c0,6.4-1.3,11-3.9,13.8
					c-2.6,2.8-6,4.1-10.3,4.1c-2.4,0-4.3-0.4-5.6-1.1v5c0,1.9,0.4,3.1,1.3,3.9c0.9,0.8,2.1,1.1,3.9,1.1v1.3c-0.6,0-2.1-0.1-4.4-0.1
					c-2.3-0.1-4.5-0.1-6.8-0.1c-1.6,0-3.4,0-5,0.1c-1.8,0.1-2.9,0.1-3.3,0.1v-1.3c0.9,0,1.5-0.1,2-0.4c0.5-0.3,0.9-0.8,1.1-1.4
					c0.3-0.6,0.4-1.5,0.4-2.6V61c0-1.9-0.3-3.3-0.8-4.1s-1.4-1.3-2.6-1.3v-1.3c1.3,0.1,2.5,0.1,3.8,0.1c4.3,0,7.8-0.3,10.5-0.9v4.3
					C74.7,55,77.7,53.5,82,53.5z M75,84.9c2.3,0,3.8-1.3,4.8-3.6c1-2.4,1.5-6.1,1.5-11.1s-0.4-8.5-1.1-10.5c-0.8-2-1.8-3-3-3
					c-0.8,0-1.5,0.3-2.1,0.5c-0.6,0.4-1.3,0.9-1.6,1.5c-0.4,0.6-0.6,1.4-0.6,2.3v23.3C73.3,84.7,74.1,84.9,75,84.9z"/>
			</g>
		</g>
	</g>
</g>
<g>
	<line class="st1" x1="76.2" y1="3.9" x2="93.2" y2="3.9"/>
	<circle class="st2" cx="93.4" cy="3.9" r="0.3"/>
	<g id="Vector_Smart_Object1.psd_00000076576204659871313910000011545071355361453487_">
		<g>
			<path class="st2" d="M10.1,3.2c0.5,0,0.9,0,1.4,0c0,0.2,0,0.4,0.1,0.6c0.2,0,0.3,0,0.4,0c20.9,0,41.8,0,62.7,0
				c0.4,0,0.5-0.2,0.5-0.6c0.5,0,0.9,0,1.3,0c0.2,0.6,0.2,0.6,0.8,0.6c2.9,0.1,5.7,0.8,8.2,2.4c2.7,1.8,4.3,4.4,4.8,7.6
				c0,0.3,0.1,0.6,0.1,0.9c0,0,0,0.1,0.1,0.1c0.2,0,0.3,0,0.5,0c0,0.5,0,0.9,0,1.4c-0.2,0-0.3,0-0.5,0.1c0,8.1,0,16.2,0,24.3
				c0.2,0,0.3,0,0.6,0.1c0,0.5,0,0.9,0,1.4c-0.5,0-1,0-1.5,0c0-0.5,0-0.9,0-1.4c0.2,0,0.4,0,0.6-0.1c0-8.1,0-16.2,0-24.2
				c-0.2,0-0.3,0-0.5-0.1c0-0.5,0-0.9,0-1.4c0.2,0,0.3,0,0.5,0c-0.1-0.6-0.2-1.2-0.3-1.7c-1.1-4.4-3.9-7-8.2-8.3
				c-1.6-0.5-3.2-0.7-4.9-0.8c-0.4,0-0.3,0.3-0.4,0.5c-0.4,0-0.8,0-1.3,0C75.3,4,75,4.1,74.6,4.1c-20.8,0-41.6,0-62.4,0
				c-0.2,0-0.4,0-0.6,0c0,0.2,0,0.4-0.1,0.6c-0.5,0-0.9,0-1.4,0C10.1,4.2,10.1,3.7,10.1,3.2z"/>
		</g>
	</g>
</g>
<rect x="8.7" y="55.6" class="st2" width="1.4" height="1.4"/>
</svg>
