<?xml version="1.0" encoding="utf-8"?>
<!-- Generator: Adobe Illustrator 26.2.1, SVG Export Plug-In . SVG Version: 6.00 Build 0)  -->
<svg version="1.1" id="Capa_1" xmlns="http://www.w3.org/2000/svg" xmlns:xlink="http://www.w3.org/1999/xlink" x="0px" y="0px"
	 viewBox="0 0 100 100" style="enable-background:new 0 0 100 100;" xml:space="preserve">
<style type="text/css">
	.st0{fill:#08BDBD;}
	.st1{fill:#FFFFFF;}
</style>
<g>
	<rect class="st0" width="100" height="100"/>
	<g>
		<g>
			<g>
				<path class="st1" d="M20.7,77.1c3.1,5.3,7.7,7.9,14.1,7.9c4,0,7-0.9,9.3-2.7s3.4-4.4,3.4-7.7c0-2.9-0.7-5.3-1.9-7.6
					c-1.3-2.2-3-4.3-5.2-6.1c-2.2-1.9-4.9-4-8.6-6.3c-4.3-2.9-7.7-5.4-10.2-7.5c-2.5-2.1-4.6-4.6-6.3-7.4c-1.6-2.9-2.4-6-2.4-9.8
					c0-4.4,1.2-8.1,3.6-11.2s5.6-5.3,9.5-6.7s8.3-2.2,13.2-2.2c4.1,0,7.4,0.3,9.9,1.1s4.9,1.8,7.4,3.1c1,0.5,1.8,1,2.2,1.2
					c0.4,0.2,1,0.3,1.4,0.3c0.7,0,1.2-0.3,1.5-1.1s0.7-2,0.9-3.5h2.4c-0.3,5-0.5,13.7-0.5,25.9h-2.4c-0.3-4.1-1.2-7.9-2.7-11.6
					c-1.5-3.7-3.7-6.7-6.4-9c-2.6-2.3-5.8-3.5-9.3-3.5c-3.2,0-5.8,0.9-7.8,2.6c-2,1.8-3,4.2-3,7.2c0,2.5,0.5,4.7,1.8,6.6
					c1.2,1.9,2.9,3.5,4.9,5.2c2.1,1.6,6.1,4.5,12,8.6c4,2.7,7,5.2,9.3,7.1c2.3,2.1,4.2,4.5,5.7,7.2c1.4,2.7,2.2,5.9,2.2,9.5
					c0,4.6-1.3,8.5-3.8,11.6c-2.6,3.2-6,5.5-10.4,7.1c-4.4,1.5-9.2,2.3-14.6,2.3c-4.4,0-8-0.3-10.9-1.1c-2.9-0.7-5.5-1.6-8-2.9
					c-1.6-1-2.7-1.5-3.6-1.5c-0.7,0-1.2,0.3-1.5,1.1c-0.3,0.8-0.7,1.9-0.9,3.6h-2.4c0.3-5.4,0.4-15.7,0.4-30.8h2.4
					C15.9,65,17.7,71.8,20.7,77.1z"/>
			</g>
			<g>
				<path class="st1" d="M78,52.3c1.8,0,3.4,0.4,4.8,1.4c1.4,1,2.5,2.5,3.3,4.5s1.2,4.5,1.2,7.4c0,5.6-1.1,9.7-3.4,12.1
					c-2.3,2.4-5.3,3.6-9,3.6c-2.1,0-3.7-0.3-4.9-1v4.4c0,1.6,0.3,2.7,1.1,3.4c0.8,0.7,1.9,1,3.4,1v1.1c-0.5,0-1.9-0.1-3.8-0.1
					c-2-0.1-4-0.1-5.9-0.1c-1.4,0-3,0-4.4,0.1c-1.5,0.1-2.5,0.1-2.9,0.1V89c0.8,0,1.3-0.1,1.8-0.3c0.4-0.2,0.8-0.7,1-1.2
					c0.2-0.5,0.3-1.3,0.3-2.3V58.8c0-1.6-0.2-2.9-0.7-3.6c-0.4-0.8-1.2-1.1-2.3-1.1V53c1.1,0.1,2.2,0.1,3.3,0.1
					c3.7,0,6.8-0.2,9.2-0.8v3.7C71.7,53.6,74.3,52.3,78,52.3z M71.9,79.8c2,0,3.3-1.1,4.2-3.2c0.9-2.1,1.3-5.4,1.3-9.8
					s-0.3-7.5-1-9.2c-0.7-1.8-1.5-2.6-2.6-2.6c-0.7,0-1.3,0.2-1.9,0.4c-0.5,0.3-1.1,0.8-1.4,1.3s-0.5,1.2-0.5,2v20.4
					C70.5,79.6,71.1,79.8,71.9,79.8z"/>
			</g>
		</g>
	</g>
</g>
</svg>
