<?xml version="1.0" encoding="utf-8"?>
<!-- Generator: Adobe Illustrator 26.2.1, SVG Export Plug-In . SVG Version: 6.00 Build 0)  -->
<svg version="1.1" id="Capa_1" xmlns="http://www.w3.org/2000/svg" xmlns:xlink="http://www.w3.org/1999/xlink" x="0px" y="0px"
	 viewBox="0 0 90 90" style="enable-background:new 0 0 90 90;" xml:space="preserve">
<style type="text/css">
	.st0{fill:#FF0000;}
	.st1{fill:#039B98;}
	.st2{fill:#E6007E;}
	.st3{fill:#420285;}
	.st4{fill:#8000C4;}
	.st5{fill:#0084C2;}
</style>
<g>
	<path class="st0" d="M-61.2,59.1c0,8-5.2,13.9-15.2,13.9h-17.4V45.2h16.5c3.4,0,4.8-2.2,4.8-4.7c0-2.5-1.4-4.7-4.8-4.7h-16.5v-8.3
		h16.3c8.7,0,13.9,5.9,13.9,13c0,3.3-1.6,6.3-4.1,8.5C-63.8,50.9-61.2,54.3-61.2,59.1z M-70.2,59.1c0-3.3-2.1-5.7-6.2-5.7h-8.7v11.3
		h8.7C-72.3,64.7-70.2,62.3-70.2,59.1z"/>
	<path class="st0" d="M-43.5,48.8l-4.6,13.1l-12.4-34.5h9.6L-43.5,48.8z M-18.7,27.5L-35.2,73H-44v-0.1l15.7-45.5H-18.7z"/>
</g>
<g>
	<path class="st1" d="M-76.5,68.8h-7.7v-6.5h7.7V68.8z M-76.5,90.1l-7.7,7.6V74.5h7.7V90.1z M-59.9,95.4v7.3h-20.9l7.5-7.3H-59.9z"
		/>
	<path class="st1" d="M-15.5,61.9v40.8h-7.7V80.9l-12,12.8h-0.5l-11.9-12.8v21.9h-7.7V61.9h0.5l19.4,21.4l19.4-21.4H-15.5z"/>
</g>
<text transform="matrix(1 0 0 1 113.6296 -21.7742)" class="st0" style="font-family:'MADEEvolveSansEVO-Bold'; font-size:12px;">LM</text>
<g>
	<path class="st2" d="M-79.6,3.3h-8.8v-7.5h8.8V3.3z M-79.6,27.7l-8.8,8.8V9.8h8.8V27.7z M-60.5,33.8v8.4h-24l8.6-8.4H-60.5z"/>
	<path class="st2" d="M-40.4,23.2H-46v19.1h-8.8V-4.2h8.8v19h5.4l12.2-19h9.7l-14,22.9l15,23.6h-11L-40.4,23.2z"/>
</g>
<g>
	<path class="st3" d="M-48.3,35.1v8.5h-30.4v-8.5H-48.3z M-78.7,54.1h26v8.4h-17.2v18.9h-8.8V54.1z"/>
	<path class="st3" d="M-27.4,65.5h-6.4v15.9h-8.8V57.1h17c4.4,0,7.2-2.8,7.2-6.8c0-4-2.8-6.8-7.2-6.8h-17v-8.5h17.2
		c10.3,0,16.1,6.8,16.1,15.2c0,6.2-3,11.5-8.8,13.9l9.9,17.2h-9.9L-27.4,65.5z"/>
</g>
<g>
	<path class="st4" d="M15.3,53.8c0.3,1.3,1.1,2.7,3.1,3.9l-2.9,8.1c-4.4-2-7.2-5.3-7.9-9L15.3,53.8z M41.7,54.2
		c0,7.4-5.2,13.8-16.7,13.7c-1.1,0-2.2-0.1-3.3-0.2l2.9-8.4c4.9-0.2,8-2.2,8-4.7c0-2.7-2-3.8-9.4-6.1C12.8,45.4,8.7,41.6,8.7,35
		c0-5.9,4.3-12.9,15.8-12.9c1.9,0,3.8,0.3,5.5,0.8l-5.2,7.7c-0.1,0-0.3,0-0.4,0c-4.1,0-6.6,1.7-6.6,4.1c0,2.1,1.8,3.5,8.7,5.6
		C35,42.9,41.7,46,41.7,54.2z"/>
	<path class="st4" d="M60.7,48.8h-5.4v18.3h-8.5V22.5h8.5v18.2h5.2l11.7-18.2h9.3l-13.5,22l14.4,22.6H71.9L60.7,48.8z"/>
</g>
<g>
	<path class="st5" d="M135.6,40.3h-25.4v-7.1h25.4V40.3z M133.9,56.1h-23.7v-7h23.7V56.1z M136,64.9v7h-25.7v-7H136z"/>
	<path class="st5" d="M179.2,32.9v39h-7.4V51l-11.4,12.2h-0.5L148.6,51v20.9h-7.4v-39h0.4l18.5,20.5l18.5-20.5H179.2z"/>
</g>
</svg>
