<?xml version="1.0" encoding="utf-8"?>
<!-- Generator: Adobe Illustrator 26.2.1, SVG Export Plug-In . SVG Version: 6.00 Build 0)  -->
<svg version="1.1" id="Capa_1" xmlns="http://www.w3.org/2000/svg" xmlns:xlink="http://www.w3.org/1999/xlink" x="0px" y="0px"
	 viewBox="0 0 50 50" style="enable-background:new 0 0 50 50;" xml:space="preserve">
<g>
	<path d="M34.1,25c0,5-4,9.1-9.1,9.2c-5,0.1-9.2-4.2-9.2-9.2c0-5.1,4-9.1,9.1-9.1C30.1,15.9,34.1,19.9,34.1,25z"/>
	<path d="M28,5.8c0,0.8,0,1.6,0,2.4c-0.1,1.6-1.4,2.8-2.9,2.8c-1.7,0-3-1.3-3-2.5c0-1.8-0.1-3.7,0-5.5c0.1-1.7,1.4-2.6,3.1-2.5
		c1.6,0.1,2.6,1.1,2.8,2.7C28,4.1,28,5,28,5.8C28,5.8,28,5.8,28,5.8z"/>
	<path d="M28,44.2c0,0.8,0,1.6,0,2.5c-0.1,1.6-1.2,2.7-2.7,2.8c-1.7,0.1-3-0.8-3.1-2.5c-0.2-1.9-0.2-3.8,0-5.6
		c0.1-1.6,1.4-2.5,3-2.4c1.5,0.1,2.7,1.1,2.8,2.7C28,42.5,28,43.4,28,44.2C28,44.2,28,44.2,28,44.2z"/>
	<path d="M5.8,28c-0.8,0-1.6,0.1-2.5,0c-1.7-0.2-2.9-1.5-2.8-3.1c0.1-1.6,1.1-2.7,2.8-2.9C5,22,6.6,22,8.2,22.1
		c1.8,0.1,2.8,1.2,2.8,2.9c0,1.7-1,2.9-2.8,3.1C7.4,28.1,6.6,28,5.8,28C5.8,28,5.8,28,5.8,28z"/>
	<path d="M44.3,28.1c-0.9,0-1.8,0-2.6-0.1c-1.7-0.2-2.7-1.4-2.6-3c0-1.6,0.9-2.7,2.6-2.8c1.7-0.1,3.5-0.1,5.2,0
		c1.7,0.1,2.7,1.4,2.7,3c0,1.5-1.1,2.7-2.7,2.9C46,28.1,45.1,28.1,44.3,28.1z"/>
	<path d="M37.5,15.7c-2.4,0-4-2.6-2.7-4.5c1.1-1.6,2.6-2.9,4.1-4.1c1.1-0.9,2.8-0.5,3.7,0.4C43.4,8.4,43.8,10,43,11
		c-1.3,1.6-2.8,2.9-4.3,4.3C38.3,15.6,37.8,15.6,37.5,15.7z"/>
	<path d="M15.7,37.7c-0.2,0.3-0.3,1.1-0.7,1.6c-1,1.2-2.1,2.2-3.2,3.3c-0.7,0.6-1.5,0.8-2.4,0.7C7,43,5.8,40.6,7.2,38.7
		c1.1-1.5,2.5-2.7,3.9-3.9c0.9-0.8,2.1-0.7,3.2-0.1C15.2,35.3,15.6,36.2,15.7,37.7z"/>
	<path d="M10,6.6c0.4,0.2,1.2,0.4,1.7,0.9c1.1,1,2.2,2,3.1,3.2c0.4,0.5,0.7,1.2,0.7,1.8c0.2,2.2-1.9,3.8-4,3
		c-0.3-0.1-0.6-0.2-0.8-0.4c-1.2-1.2-2.5-2.3-3.6-3.6c-0.8-1-0.8-2.2-0.2-3.3C7.6,7.1,8.6,6.7,10,6.6z"/>
	<path d="M37.5,34.2c0.7,0.4,1.6,0.7,2.2,1.2c0.9,0.8,1.8,1.7,2.6,2.6c0.1,0.1,0.3,0.3,0.4,0.5c0.9,1.3,0.9,2.9-0.1,4
		c-0.9,1-2.8,1.4-3.9,0.4c-1.4-1.2-2.9-2.5-3.9-4C33.5,36.9,35,34.3,37.5,34.2z"/>
</g>
</svg>
